<svg width="140" height="140" viewBox="0 0 140 140" fill="none" xmlns="http://www.w3.org/2000/svg">
<rect width="140" height="140" rx="70" fill="white"/>
<g clip-path="url(#clip0_592_548)">
<path d="M89.1175 77.4787C89.1175 75.2611 90.4634 73.3646 92.3905 72.554C93.614 72.034 94.4705 70.9481 94.4705 69.6175V69.0517C94.4705 67.7364 93.5987 66.6352 92.3905 66.1152C90.4634 65.3046 89.1175 63.3928 89.1175 61.1905C89.1175 58.9881 90.4634 57.0764 92.3905 56.2658C93.614 55.7458 94.4705 54.6599 94.4705 53.3293V51.6928C94.4705 49.9799 93.0787 48.5881 91.3658 48.5881H48.634C46.9211 48.5881 45.5293 49.9799 45.5293 51.6928V53.3293C45.5293 54.6446 46.4011 55.7458 47.6093 56.2658C49.5364 57.0764 50.8822 58.9881 50.8822 61.1905C50.8822 63.3928 49.5364 65.3046 47.6093 66.1152C46.3858 66.6352 45.5293 67.7211 45.5293 69.0517V69.6175C45.5293 70.9328 46.4011 72.034 47.6093 72.554C49.5364 73.3646 50.8822 75.2764 50.8822 77.4787C50.8822 79.6811 49.5364 81.5928 47.6093 82.4034C46.3858 82.9234 45.5293 84.0093 45.5293 85.3399V88.3223C45.5293 90.0352 46.9211 91.427 48.634 91.427H91.3658C93.0787 91.427 94.4705 90.0352 94.4705 88.3223V85.3399C94.4705 84.0246 93.5987 82.9234 92.3905 82.4034C90.4634 81.5928 89.1175 79.6811 89.1175 77.4787Z" fill="white" stroke="#666666" stroke-width="4" stroke-linejoin="round"/>
<path d="M62.3838 77.754L76.852 63.0105" stroke="#CF152D" stroke-width="4" stroke-linecap="round" stroke-linejoin="round"/>
<path d="M64.6467 66.9411C66.3361 66.9411 67.7055 65.5717 67.7055 63.8823C67.7055 62.193 66.3361 60.8235 64.6467 60.8235C62.9574 60.8235 61.5879 62.193 61.5879 63.8823C61.5879 65.5717 62.9574 66.9411 64.6467 66.9411Z" fill="white" stroke="#CF152D" stroke-width="3.6" stroke-linejoin="round"/>
<path d="M75.3528 79.1765C77.0421 79.1765 78.4116 77.807 78.4116 76.1177C78.4116 74.4283 77.0421 73.0588 75.3528 73.0588C73.6634 73.0588 72.2939 74.4283 72.2939 76.1177C72.2939 77.807 73.6634 79.1765 75.3528 79.1765Z" fill="white" stroke="#CF152D" stroke-width="3.6" stroke-linejoin="round"/>
</g>
<defs>
<clipPath id="clip0_592_548">
<rect width="52" height="45.8824" fill="white" transform="translate(44 47.0588)"/>
</clipPath>
</defs>
</svg>
