<svg width="140" height="140" viewBox="0 0 140 140" fill="none" xmlns="http://www.w3.org/2000/svg">
<rect width="140" height="140" rx="70" fill="white"/>
<g clip-path="url(#clip0_592_567)">
<path d="M86.96 60.4402V50.1802C86.96 47.3001 84.32 45.1601 81.5 45.7601L49.38 52.5201C46.24 53.1801 44 55.9401 44 59.1601V74.0002" fill="white"/>
<path d="M86.96 60.4402V50.1802C86.96 47.3001 84.32 45.1601 81.5 45.7601L49.38 52.5201C46.24 53.1801 44 55.9401 44 59.1601V74.0002" stroke="#666666" stroke-width="3.6" stroke-linejoin="round"/>
<path d="M89.22 60.4401H50.78C47.0355 60.4401 44 63.4756 44 67.2201V87.5801C44 91.3246 47.0355 94.3601 50.78 94.3601H89.22C92.9645 94.3601 96 91.3246 96 87.5801V67.2201C96 63.4756 92.9645 60.4401 89.22 60.4401Z" fill="white" stroke="#666666" stroke-width="3.6" stroke-linejoin="round"/>
<path d="M86.9597 70.62H95.9997V84.18H86.9597C83.2197 84.18 80.1797 81.14 80.1797 77.4C80.1797 73.66 83.2197 70.62 86.9597 70.62Z" stroke="#CF152D" stroke-width="3.6" stroke-linejoin="round"/>
<path d="M84.7001 78.5401C85.3297 78.5401 85.8401 78.0297 85.8401 77.4001C85.8401 76.7705 85.3297 76.2601 84.7001 76.2601C84.0705 76.2601 83.5601 76.7705 83.5601 77.4001C83.5601 78.0297 84.0705 78.5401 84.7001 78.5401Z" fill="#CF152D"/>
</g>
<defs>
<clipPath id="clip0_592_567">
<rect width="56" height="52.68" fill="white" transform="translate(42 43.66)"/>
</clipPath>
</defs>
</svg>
