<svg width="80" height="80" viewBox="0 0 80 80" fill="none" xmlns="http://www.w3.org/2000/svg">
<g clip-path="url(#clip0_140_1226)">
<path d="M77.9842 60.5358C77.9842 60.5358 77.9842 60.5041 77.9842 60.4883L74.8333 9.82165C74.7858 8.98248 74.0892 8.33331 73.25 8.33331H6.75C5.91083 8.33331 5.21417 8.98248 5.16667 9.82165L2 60.4883C2 60.4883 2 60.52 2 60.5358C2 60.5517 2 60.5675 2 60.5833V70.0833C2 70.9542 2.7125 71.6667 3.58333 71.6667H76.4167C77.2875 71.6667 78 70.9542 78 70.0833V60.5833C78 60.5833 78 60.5517 78 60.5358H77.9842ZM5.62583 53.1733L7.76333 19.1L8.23833 11.5H71.7617L72.1892 18.2291L74.3742 53.1733L74.7383 59H5.26167L5.62583 53.1733ZM74.8333 68.5H5.16667V62.1666H74.8333V68.5Z" fill="#C8102E" stroke="#C8102E" stroke-width="0.1"/>
<path d="M41.862 27.6385C41.1058 27.8464 40.2929 28.0733 39.5178 28.3001C38.5915 28.5459 37.6463 28.8105 36.7578 29.0752L36.6066 29.113C35.5101 29.4155 34.357 29.7368 33.2038 30.0393C33.166 30.0393 33.1093 30.0582 33.0526 30.0771C33.0526 30.0771 32.8824 30.1149 32.7879 30.1527C32.5989 30.2851 32.4476 30.4741 32.3342 30.682L32.2964 30.7388C31.9939 31.2303 31.7293 31.7407 31.4646 32.2511C31.3701 32.4402 31.2756 32.6103 31.181 32.7993L30.8975 33.3476C30.595 33.9336 30.2547 34.5953 29.8955 35.2191C29.7632 35.4648 29.5553 35.6539 29.2906 35.7484C28.8747 35.9753 28.421 36.2021 27.9673 36.4101L27.8728 36.4479C27.3624 36.6936 26.8708 36.9394 26.4171 37.1851C23.7894 38.603 21.2752 40.2287 18.9121 42.0625C18.742 42.1948 18.534 42.3649 18.2316 42.6296L18.137 42.7052L18.0803 42.743C17.74 42.951 17.4943 43.2723 17.3809 43.6315V43.7828C17.4565 44.2176 17.7589 44.4633 18.3072 44.5389H18.5151L22.0313 43.7639L22.3527 43.6882H22.3716C27.7972 42.5162 33.3928 41.2874 39.1398 40.2098C44.8867 39.1323 51.0306 38.5084 55.7378 38.0736C57.269 37.9224 59.0838 37.7712 60.8041 37.6767H61.0877C61.2389 37.6767 61.3902 37.6767 61.5414 37.6388C61.825 37.5821 62.0896 37.4309 62.2976 37.204C62.4866 36.9772 62.6001 36.6936 62.619 36.4101V36.2021C62.5244 35.5405 61.8628 35.2191 61.3146 34.9544L61.22 34.9166C60.7096 34.6898 60.1992 34.4629 59.6321 34.255C58.4978 33.8202 57.3446 33.4421 56.286 33.1018C54.8115 32.6481 53.318 32.3078 51.749 31.9675H51.6922C51.1251 31.8163 50.5202 31.684 49.9341 31.5517H49.8396L49.7829 31.5138C49.5371 31.476 49.2914 31.4004 49.0645 31.3059C48.9889 31.2114 48.9322 31.0979 48.8944 30.9656V30.9278C48.8944 30.9278 48.8377 30.8144 48.8188 30.7766C48.4407 29.9259 48.1382 29.0941 47.8736 28.3568L47.7412 28.0165C47.7412 28.0165 47.6845 27.8653 47.6656 27.8086V27.733C47.4199 27.1091 47.2119 26.5231 46.5125 26.4097H46.3423C44.8867 26.7499 43.431 27.1469 42.0132 27.5628L41.8998 27.6006L41.862 27.6385Z" fill="#C8102E"/>
</g>
<defs>
<clipPath id="clip0_140_1226">
<rect width="76" height="63.3333" fill="white" transform="translate(2 8.33331)"/>
</clipPath>
</defs>
</svg>
