<?xml version="1.0" encoding="utf-8"?>
<!-- Generator: Adobe Illustrator 25.3.1, SVG Export Plug-In . SVG Version: 6.00 Build 0)  -->
<svg version="1.1" xmlns="http://www.w3.org/2000/svg" xmlns:xlink="http://www.w3.org/1999/xlink" x="0px" y="0px"
	 viewBox="0 0 1440 900" style="enable-background:new 0 0 1440 900;" xml:space="preserve">
<style type="text/css">
	.st0{fill:#FFFFFF;}
	.st1{fill:#E8C0DA;stroke:#231F20;stroke-width:0.4694;stroke-linejoin:round;stroke-miterlimit:10;}
	.st2{fill:#F06A22;stroke:#231F20;stroke-width:0.4694;stroke-linejoin:round;stroke-miterlimit:10;}
	.st3{fill:#5C240D;stroke:#231F20;stroke-width:0.4694;stroke-linejoin:round;stroke-miterlimit:10;}
	.st4{fill:#FCE3D0;stroke:#231F20;stroke-width:0.4694;stroke-linecap:round;stroke-linejoin:round;stroke-miterlimit:10;}
	.st5{fill:#9E6227;stroke:#231F20;stroke-width:0.4694;stroke-linecap:round;stroke-linejoin:round;stroke-miterlimit:10;}
	.st6{clip-path:url(#XMLID_10_);fill:#FF3BC3;}
	.st7{clip-path:url(#XMLID_11_);fill:#FF3200;stroke:#231F20;stroke-width:0.1878;stroke-linejoin:round;stroke-miterlimit:10;}
	.st8{fill:#020202;stroke:#231F20;stroke-width:0.4694;stroke-linejoin:round;stroke-miterlimit:10;}
	.st9{fill:#231F20;}
	.st10{fill:#F16622;stroke:#231F20;stroke-width:0.4694;stroke-miterlimit:10;}
	.st11{fill:#100094;stroke:#231F20;stroke-width:0.4694;stroke-linejoin:round;stroke-miterlimit:10;}
	.st12{fill:#155E15;stroke:#231F20;stroke-width:0.4694;stroke-linejoin:round;stroke-miterlimit:10;}
	.st13{fill:#D62525;stroke:#231F20;stroke-width:0.4694;stroke-linejoin:round;stroke-miterlimit:10;}
	.st14{fill:#E8C0DA;}
	.st15{fill:none;stroke:#231F20;stroke-width:0.4694;stroke-miterlimit:10;}
	.st16{fill:#F16622;}
	.st17{fill:#7D4F9F;stroke:#000000;stroke-width:0.4694;stroke-miterlimit:10;}
	.st18{fill:#F8D6BC;stroke:#231F20;stroke-width:0.4694;stroke-miterlimit:10;}
	.st19{fill:#7D4F9F;}
	.st20{fill:none;stroke:#000000;stroke-width:0.4694;stroke-miterlimit:10;}
	.st21{fill:#EC3292;stroke:#231F20;stroke-width:0.4694;stroke-miterlimit:10;}
	.st22{fill:#E8C0DA;stroke:#231F20;stroke-width:0.4694;stroke-miterlimit:10;}
	.st23{fill:#00BF20;}
	.st24{font-family:'HCRDotum-Bold';}
	.st25{font-size:18px;}
	.st26{fill:#E8C0DA;stroke:#231F20;stroke-width:0.9353;stroke-linejoin:round;stroke-miterlimit:10;}
	.st27{fill:#F06A22;stroke:#231F20;stroke-width:0.9353;stroke-linejoin:round;stroke-miterlimit:10;}
	.st28{fill:#5C240D;stroke:#231F20;stroke-width:0.9353;stroke-linejoin:round;stroke-miterlimit:10;}
	.st29{fill:#FCE3D0;stroke:#231F20;stroke-width:0.9353;stroke-linecap:round;stroke-linejoin:round;stroke-miterlimit:10;}
	.st30{fill:#9E6227;stroke:#231F20;stroke-width:0.9353;stroke-linecap:round;stroke-linejoin:round;stroke-miterlimit:10;}
	.st31{clip-path:url(#XMLID_12_);fill:#FF3BC3;}
	.st32{clip-path:url(#XMLID_13_);fill:#FF3200;stroke:#231F20;stroke-width:0.3741;stroke-linejoin:round;stroke-miterlimit:10;}
	.st33{fill:#020202;stroke:#231F20;stroke-width:0.9353;stroke-linejoin:round;stroke-miterlimit:10;}
	.st34{fill:#F16622;stroke:#231F20;stroke-width:0.9353;stroke-miterlimit:10;}
	.st35{fill:#100094;stroke:#231F20;stroke-width:0.9353;stroke-linejoin:round;stroke-miterlimit:10;}
	.st36{fill:#155E15;stroke:#231F20;stroke-width:0.9353;stroke-linejoin:round;stroke-miterlimit:10;}
	.st37{fill:#D62525;stroke:#231F20;stroke-width:0.9353;stroke-linejoin:round;stroke-miterlimit:10;}
	.st38{fill:none;stroke:#231F20;stroke-width:0.9353;stroke-miterlimit:10;}
	.st39{fill:#7D4F9F;stroke:#000000;stroke-width:0.9353;stroke-miterlimit:10;}
	.st40{fill:#F8D6BC;stroke:#231F20;stroke-width:0.9353;stroke-miterlimit:10;}
	.st41{fill:none;stroke:#000000;stroke-width:0.9353;stroke-miterlimit:10;}
	.st42{fill:#EC3292;stroke:#231F20;stroke-width:0.9353;stroke-miterlimit:10;}
	.st43{fill:#E8C0DA;stroke:#231F20;stroke-width:0.9353;stroke-miterlimit:10;}
	.st44{font-size:35.8653px;}
	.st45{fill:none;}
</style>
<g id="배경">
	<g>
		<defs>
			<rect id="SVGID_1_" y="0" width="1440" height="653.59"/>
		</defs>
		<clipPath id="SVGID_2_">
			<use xlink:href="#SVGID_1_"  style="overflow:visible;"/>
		</clipPath>
		<g style="clip-path:url(#SVGID_2_);">
			
				<image style="overflow:visible;" width="1919" height="871" xlink:href="D2D44F01.jpg"  transform="matrix(0.7504 0 0 0.7504 0 0)">
			</image>
		</g>
	</g>
	<g>
		<rect x="265" y="7" class="st0" width="159" height="48"/>
	</g>
</g>
<g id="로고">
	<g>
		<g>
			<g>
				<polygon class="st1" points="289.85,58.39 294.58,58.39 294.83,55.85 289.85,55.85 				"/>
				<path class="st1" d="M305.07,52.85V39.43h-15.22v13.42h5.28l0.32-3.29h3.85l0.32,3.29c0.81,0,2.18,0,3.75,0
					C303.96,52.85,304.54,52.85,305.07,52.85z"/>
				<path class="st1" d="M304.63,55.85c-1.95,0-3.68,0-4.72,0l0.25,2.53h4.91v-2.53C304.92,55.85,304.78,55.85,304.63,55.85z"/>
				<path class="st2" d="M305.07,55.85v-3c-0.53,0-1.1,0-1.71,0c-1.56,0-2.94,0-3.75,0l0.29,3c1.04,0,2.77,0,4.72,0
					C304.78,55.85,304.92,55.85,305.07,55.85z"/>
				<polygon class="st2" points="289.85,55.85 294.83,55.85 295.12,52.85 289.85,52.85 				"/>
			</g>
			<g>
				<path class="st2" d="M292.21,56.89c-1.17,0-2.21,0.59-2.88,1.5h5.77C294.42,57.47,293.38,56.89,292.21,56.89z"/>
				<path class="st3" d="M289.32,58.39c-0.49,0.67-0.79,1.52-0.79,2.44h7.35c0-0.92-0.3-1.77-0.79-2.44H289.32z"/>
			</g>
			<g>
				<path class="st2" d="M302.79,56.89c-1.17,0-2.21,0.59-2.88,1.5h5.77C305,57.47,303.96,56.89,302.79,56.89z"/>
				<path class="st3" d="M299.91,58.39c-0.49,0.67-0.79,1.52-0.79,2.44h7.35c0-0.92-0.3-1.77-0.79-2.44H299.91z"/>
			</g>
		</g>
		<rect x="294.47" y="25.81" class="st4" width="5.63" height="7.32"/>
		<g>
			<g>
				<path class="st5" d="M301.35,27.22h-7.7c-3.08,0-5.59-2.5-5.59-5.59v-2.49h18.87v2.49C306.93,24.72,304.43,27.22,301.35,27.22z"
					/>
				<g>
					<defs>
						<path id="XMLID_3_" d="M305.95,19.34c0,5.11-3.78,9.25-8.45,9.25s-8.45-4.14-8.45-9.25H305.95z"/>
					</defs>
					<use xlink:href="#XMLID_3_"  style="overflow:visible;fill:#FBE9BD;"/>
					<clipPath id="XMLID_10_">
						<use xlink:href="#XMLID_3_"  style="overflow:visible;"/>
					</clipPath>
					<ellipse class="st6" cx="303.26" cy="25.49" rx="1.92" ry="2.3"/>
					<use xlink:href="#XMLID_3_"  style="overflow:visible;fill:none;stroke:#231F20;stroke-width:0.4694;stroke-miterlimit:10;"/>
				</g>
				<g>
					<defs>
						<path id="XMLID_5_" d="M289.05,19.34c0,5.11,3.78,9.25,8.45,9.25s8.45-4.14,8.45-9.25H289.05z"/>
					</defs>
					<use xlink:href="#XMLID_5_"  style="overflow:visible;fill:#FBE9BD;"/>
					<clipPath id="XMLID_11_">
						<use xlink:href="#XMLID_5_"  style="overflow:visible;"/>
					</clipPath>
					<ellipse class="st7" cx="291.74" cy="25.49" rx="1.92" ry="2.3"/>
					<ellipse class="st7" cx="303.5" cy="25.63" rx="1.92" ry="2.3"/>
					<use xlink:href="#XMLID_5_"  style="overflow:visible;fill:none;stroke:#231F20;stroke-width:0.4694;stroke-miterlimit:10;"/>
				</g>
				<g>
					<g>
						<circle class="st8" cx="293.42" cy="21.45" r="1.08"/>
					</g>
					<circle class="st8" cx="301.58" cy="21.45" r="1.08"/>
				</g>
				<g>
					<g>
						<path class="st9" d="M294.78,26.53c1.6,0.99,3.85,0.99,5.45,0c0.31-0.19,0.03-0.68-0.28-0.49c-1.44,0.89-3.44,0.89-4.88,0
							C294.75,25.85,294.47,26.34,294.78,26.53L294.78,26.53z"/>
					</g>
				</g>
			</g>
			<g>
				<path class="st10" d="M288.49,16.24c0-4.93,3.99-8.92,8.92-8.92s8.92,3.99,8.92,8.92H288.49z"/>
				<g>
					<path class="st11" d="M304.82,9.36l-1.17-1.17c-0.33,0.41-0.59,0.87-0.75,1.38l1.93,1.93V9.36z"/>
					<path class="st12" d="M304.82,7.19c-0.45,0.26-0.85,0.6-1.17,1l1.17,1.17V7.19z"/>
					<path class="st12" d="M306,8.19c-0.33-0.4-0.72-0.74-1.17-1v2.17L306,8.19z"/>
					<path class="st12" d="M304.82,11.5l1.93-1.93c-0.17-0.51-0.42-0.98-0.75-1.38l-1.17,1.17V11.5z"/>
					<path class="st12" d="M304.82,11.5l-1.93-1.93c-0.13,0.42-0.21,0.86-0.21,1.32c0,0.16,0.01,0.33,0.03,0.49l2.11,2.11V11.5z"/>
					<path class="st13" d="M306.75,9.57l-1.93,1.93v1.98l2.11-2.11c0.02-0.16,0.03-0.32,0.03-0.49
						C306.96,10.43,306.88,9.98,306.75,9.57z"/>
					<path class="st12" d="M302.71,11.37c0.16,1.37,0.96,2.55,2.11,3.21v-1.11L302.71,11.37z"/>
					<path class="st12" d="M304.82,14.59c1.14-0.66,1.95-1.84,2.11-3.21l-2.11,2.11V14.59z"/>
				</g>
				<g>
					<g>
						<path class="st14" d="M297.95,13.7c-0.46,0-1.03,0.33-1.25,0.74l-0.58,1.05c-0.22,0.41-0.03,0.74,0.44,0.74h1.17
							c0.46,0,1.03-0.33,1.25-0.74l0.58-1.05c0.22-0.41,0.03-0.74-0.44-0.74H297.95z"/>
						<path class="st15" d="M297.95,13.7c-0.46,0-1.03,0.33-1.25,0.74l-0.58,1.05c-0.22,0.41-0.03,0.74,0.44,0.74h1.17
							c0.46,0,1.03-0.33,1.25-0.74l0.58-1.05c0.22-0.41,0.03-0.74-0.44-0.74H297.95z"/>
					</g>
					<g id="XMLID_2_">
						<path class="st14" d="M295.09,13.7c-0.46,0-1.03,0.33-1.25,0.74l-0.58,1.05c-0.22,0.41-0.03,0.74,0.44,0.74h1.17
							c0.46,0,1.03-0.33,1.25-0.74l0.58-1.05c0.22-0.41,0.03-0.74-0.44-0.74H295.09z"/>
						<path class="st15" d="M295.09,13.7c-0.46,0-1.03,0.33-1.25,0.74l-0.58,1.05c-0.22,0.41-0.03,0.74,0.44,0.74h1.17
							c0.46,0,1.03-0.33,1.25-0.74l0.58-1.05c0.22-0.41,0.03-0.74-0.44-0.74H295.09z"/>
					</g>
					<g>
						<path class="st14" d="M292.22,13.7c-0.46,0-1.03,0.33-1.25,0.74l-0.58,1.05c-0.22,0.41-0.03,0.74,0.44,0.74H292
							c0.46,0,1.03-0.33,1.25-0.74l0.58-1.05c0.22-0.41,0.03-0.74-0.44-0.74H292.22z"/>
						<path class="st15" d="M292.22,13.7c-0.46,0-1.03,0.33-1.25,0.74l-0.58,1.05c-0.22,0.41-0.03,0.74,0.44,0.74H292
							c0.46,0,1.03-0.33,1.25-0.74l0.58-1.05c0.22-0.41,0.03-0.74-0.44-0.74H292.22z"/>
					</g>
					<g>
						<path class="st14" d="M289.38,13.7c-0.46,0-0.84,0.38-0.84,0.84v0.84c0,0.46,0.33,0.84,0.72,0.84s0.91-0.33,1.13-0.74
							l0.58-1.05c0.22-0.41,0.03-0.74-0.44-0.74H289.38z"/>
						<path class="st15" d="M289.38,13.7c-0.46,0-0.84,0.38-0.84,0.84v0.84c0,0.46,0.33,0.84,0.72,0.84s0.91-0.33,1.13-0.74
							l0.58-1.05c0.22-0.41,0.03-0.74-0.44-0.74H289.38z"/>
					</g>
					<g>
						<path class="st14" d="M304.69,15.5c-0.22,0.41-0.03,0.74,0.44,0.74h0.35c0.46,0,0.84-0.38,0.84-0.84v-0.84
							c0-0.46-0.14-0.84-0.32-0.84c-0.18,0-0.5,0.33-0.73,0.74L304.69,15.5z"/>
						<path class="st15" d="M304.69,15.5c-0.22,0.41-0.03,0.74,0.44,0.74h0.35c0.46,0,0.84-0.38,0.84-0.84v-0.84
							c0-0.46-0.14-0.84-0.32-0.84c-0.18,0-0.5,0.33-0.73,0.74L304.69,15.5z"/>
					</g>
					<g>
						<path class="st14" d="M300.81,13.7c-0.46,0-1.03,0.33-1.25,0.74l-0.58,1.05c-0.22,0.41-0.03,0.74,0.44,0.74h1.17
							c0.46,0,1.03-0.33,1.25-0.74l0.58-1.05c0.22-0.41,0.03-0.74-0.44-0.74H300.81z"/>
						<path class="st15" d="M300.81,13.7c-0.46,0-1.03,0.33-1.25,0.74l-0.58,1.05c-0.22,0.41-0.03,0.74,0.44,0.74h1.17
							c0.46,0,1.03-0.33,1.25-0.74l0.58-1.05c0.22-0.41,0.03-0.74-0.44-0.74H300.81z"/>
					</g>
					<g>
						<path class="st14" d="M303.67,13.7c-0.46,0-1.03,0.33-1.25,0.74l-0.58,1.05c-0.22,0.41-0.03,0.74,0.44,0.74h1.17
							c0.46,0,1.03-0.33,1.25-0.74l0.58-1.05c0.22-0.41,0.03-0.74-0.44-0.74H303.67z"/>
						<path class="st15" d="M303.67,13.7c-0.46,0-1.03,0.33-1.25,0.74l-0.58,1.05c-0.22,0.41-0.03,0.74,0.44,0.74h1.17
							c0.46,0,1.03-0.33,1.25-0.74l0.58-1.05c0.22-0.41,0.03-0.74-0.44-0.74H303.67z"/>
					</g>
				</g>
				<g>
					<path class="st16" d="M308.27,17.89c0.4,0.54,0.18,0.98-0.49,0.98h-20.56c-0.67,0-0.89-0.44-0.49-0.98l0.5-0.67
						c0.4-0.54,1.28-0.98,1.95-0.98h16.63c0.67,0,1.55,0.44,1.95,0.98L308.27,17.89z"/>
					<path class="st15" d="M308.27,17.89c0.4,0.54,0.18,0.98-0.49,0.98h-20.56c-0.67,0-0.89-0.44-0.49-0.98l0.5-0.67
						c0.4-0.54,1.28-0.98,1.95-0.98h16.63c0.67,0,1.55,0.44,1.95,0.98L308.27,17.89z"/>
				</g>
			</g>
		</g>
		<g>
			<g>
				<g>
					<g>
						<path class="st17" d="M290.94,31.98c0.2-1.13-0.27-2.16-1.05-2.3c-0.78-0.14-1.57,0.67-1.77,1.8l-1.56,8.82l2.83,0.47
							L290.94,31.98z"/>
					</g>
					<path class="st18" d="M286.56,40.3l-0.19,1.1c-0.2,1.13,0.27,2.16,1.05,2.3c0.78,0.14,1.57-0.67,1.77-1.8l0.2-1.13L286.56,40.3
						z"/>
				</g>
				<g>
					<path class="st17" d="M304.1,31.97c-0.2-1.13,0.28-2.16,1.06-2.29s1.57,0.67,1.76,1.81l1.52,8.83l-2.83,0.46L304.1,31.97z"/>
					<path class="st18" d="M308.44,40.31l0.19,1.1c0.2,1.13-0.28,2.16-1.06,2.29c-0.78,0.13-1.57-0.67-1.76-1.81l-0.19-1.13
						L308.44,40.31z"/>
				</g>
			</g>
			<g>
				<path class="st19" d="M292.62,44.38c0-0.31,0.63-0.56,1.41-0.56h6.95c0.77,0,1.41,0.25,1.41,0.56c0,0.31,0.63,0.56,1.41,0.56
					h2.25c0.77,0,1.3-0.62,1.17-1.39l-2.34-13.75c-0.13-0.76-0.87-1.39-1.64-1.39h-0.23c-0.77,0-1.41,0.38-1.41,0.84
					c0,0.46-0.63,0.84-1.41,0.84h-5.35c-0.77,0-1.41-0.38-1.41-0.84c0-0.46-0.63-0.84-1.41-0.84h-0.23c-0.77,0-1.51,0.62-1.64,1.39
					l-2.34,13.75c-0.13,0.76,0.4,1.39,1.17,1.39h2.25C291.98,44.95,292.62,44.69,292.62,44.38z"/>
				<path class="st20" d="M292.62,44.38c0-0.31,0.63-0.56,1.41-0.56h6.95c0.77,0,1.41,0.25,1.41,0.56c0,0.31,0.63,0.56,1.41,0.56
					h2.25c0.77,0,1.3-0.62,1.17-1.39l-2.34-13.75c-0.13-0.76-0.87-1.39-1.64-1.39h-0.23c-0.77,0-1.41,0.38-1.41,0.84
					c0,0.46-0.63,0.84-1.41,0.84h-5.35c-0.77,0-1.41-0.38-1.41-0.84c0-0.46-0.63-0.84-1.41-0.84h-0.23c-0.77,0-1.51,0.62-1.64,1.39
					l-2.34,13.75c-0.13,0.76,0.4,1.39,1.17,1.39h2.25C291.98,44.95,292.62,44.69,292.62,44.38z"/>
			</g>
		</g>
		<g>
			<rect x="294.04" y="32.85" class="st21" width="6.92" height="1.6"/>
			<polygon class="st22" points="294.04,34.46 294.04,38.99 297.5,40.6 300.96,38.99 300.96,34.46 			"/>
		</g>
	</g>
	<text transform="matrix(1 0 0 1 346.0322 26)" class="st23 st24 st25">걸스카우트</text>
	<g>
		<g>
			<path class="st23" d="M328.08,48.87c0,0.61-0.09,1.19-0.26,1.72c-0.17,0.54-0.45,1.01-0.84,1.43c-0.38,0.42-0.89,0.77-1.5,1.05
				c-0.62,0.28-1.36,0.47-2.24,0.57c-0.94,0.1-1.74,0.04-2.4-0.18c-0.67-0.23-1.21-0.59-1.63-1.07c-0.49-0.56-0.84-1.26-1.04-2.1
				c-0.2-0.84-0.31-1.77-0.31-2.77c0-1.03,0.1-2,0.29-2.89c0.19-0.9,0.52-1.68,0.99-2.36c0.42-0.61,0.96-1.11,1.63-1.51
				c0.66-0.39,1.49-0.65,2.47-0.76c0.66-0.07,1.24-0.06,1.73,0.03c0.5,0.09,0.93,0.24,1.31,0.43c0.38,0.19,0.7,0.41,0.96,0.65
				c0.26,0.24,0.5,0.47,0.7,0.68c-0.59,0.49-0.88,0.74-1.47,1.23c-0.38-0.52-0.85-0.9-1.39-1.14c-0.55-0.24-1.16-0.33-1.84-0.25
				c-0.65,0.07-1.18,0.25-1.59,0.52c-0.41,0.27-0.74,0.62-0.98,1.03c-0.32,0.54-0.53,1.17-0.63,1.87c-0.1,0.7-0.14,1.44-0.14,2.21
				c-0.01,0.79,0.03,1.51,0.13,2.16c0.1,0.65,0.28,1.18,0.56,1.6c0.25,0.39,0.59,0.67,1.02,0.86c0.42,0.18,0.97,0.23,1.64,0.16
				c0.37-0.04,0.72-0.12,1.06-0.22c0.34-0.11,0.63-0.28,0.9-0.51c0.26-0.23,0.47-0.53,0.63-0.89c0.16-0.36,0.23-0.83,0.23-1.39
				c0-0.64,0-0.96,0-1.6c-1.28,0.12-1.92,0.19-3.2,0.34c0-0.65,0-0.97,0-1.62c2.09-0.24,3.14-0.34,5.23-0.52
				C328.08,46.91,328.08,47.57,328.08,48.87z"/>
			<path class="st23" d="M332.33,41.42c-0.88,0.06-1.33,0.09-2.21,0.16c0-0.76,0-1.14,0-1.91c0.88-0.07,1.33-0.1,2.21-0.16
				C332.33,40.28,332.33,40.66,332.33,41.42z M332.24,52.57c-0.8,0.05-1.2,0.08-1.99,0.14c0-3.61,0-5.42,0-9.04
				c0.8-0.06,1.2-0.09,1.99-0.14C332.24,47.15,332.24,48.95,332.24,52.57z"/>
			<path class="st23" d="M339.99,45.41c-0.25-0.27-0.51-0.48-0.77-0.64c-0.26-0.16-0.52-0.23-0.75-0.22
				c-0.2,0.01-0.41,0.08-0.62,0.2c-0.21,0.13-0.4,0.3-0.57,0.51c-0.17,0.21-0.31,0.47-0.42,0.77c-0.11,0.3-0.16,0.62-0.16,0.95
				c0,2.14,0,3.21,0,5.35c-0.79,0.04-1.19,0.06-1.98,0.1c0-3.61,0-5.42,0-9.04c0.79-0.04,1.19-0.06,1.98-0.1c0,0.19,0,0.28,0,0.47
				c0.17-0.19,0.41-0.37,0.74-0.55c0.32-0.18,0.72-0.27,1.2-0.29c0.29-0.01,0.56,0.02,0.83,0.09c0.26,0.07,0.51,0.16,0.74,0.27
				c0.23,0.11,0.44,0.24,0.63,0.38c0.19,0.14,0.36,0.27,0.5,0.38C340.79,44.59,340.52,44.86,339.99,45.41z"/>
			<path class="st23" d="M342.66,52.13c0-5.23,0-7.84,0-13.07c0.8-0.02,1.2-0.02,1.99-0.03c0,5.23,0,7.84,0,13.07
				C343.86,52.11,343.46,52.11,342.66,52.13z"/>
			<path class="st23" d="M353.23,48.97c0.16,0.18,0.36,0.38,0.61,0.6c0.25,0.22,0.53,0.43,0.84,0.63s0.65,0.36,1.01,0.49
				c0.36,0.13,0.72,0.19,1.08,0.19c0.27,0,0.57-0.04,0.89-0.11c0.32-0.07,0.61-0.19,0.88-0.36c0.27-0.17,0.49-0.4,0.67-0.69
				c0.18-0.29,0.28-0.64,0.31-1.06c0.01-0.27-0.04-0.52-0.14-0.74s-0.26-0.42-0.46-0.6c-0.2-0.18-0.43-0.33-0.68-0.46
				c-0.26-0.13-0.54-0.24-0.84-0.33c-0.24-0.07-0.49-0.14-0.75-0.22c-0.26-0.08-0.52-0.15-0.75-0.22c-0.53-0.16-1.01-0.35-1.46-0.59
				c-0.44-0.24-0.82-0.5-1.14-0.79c-0.32-0.29-0.56-0.62-0.74-0.97c-0.17-0.36-0.26-0.74-0.26-1.15c0-0.47,0.08-0.93,0.23-1.38
				c0.16-0.45,0.41-0.86,0.75-1.21c0.35-0.35,0.81-0.64,1.38-0.86c0.57-0.22,1.28-0.31,2.1-0.29c0.51,0.01,0.99,0.08,1.42,0.21
				c0.43,0.13,0.83,0.29,1.19,0.48c0.36,0.19,0.68,0.4,0.95,0.62c0.28,0.22,0.52,0.42,0.74,0.61c-0.53,0.48-0.8,0.73-1.33,1.21
				c-0.17-0.16-0.37-0.33-0.59-0.51c-0.23-0.18-0.47-0.34-0.73-0.48c-0.26-0.14-0.53-0.26-0.82-0.36c-0.29-0.1-0.58-0.15-0.88-0.16
				c-0.43-0.01-0.8,0.05-1.1,0.17c-0.31,0.13-0.55,0.29-0.74,0.5c-0.19,0.21-0.32,0.44-0.41,0.7c-0.09,0.26-0.14,0.52-0.14,0.77
				c0,0.24,0.06,0.46,0.17,0.66c0.11,0.2,0.26,0.37,0.44,0.52c0.18,0.15,0.38,0.28,0.6,0.39c0.22,0.11,0.45,0.2,0.66,0.27
				c0.27,0.09,0.55,0.19,0.82,0.26c0.27,0.07,0.54,0.14,0.82,0.21c0.54,0.15,1.04,0.32,1.5,0.52c0.46,0.2,0.85,0.46,1.19,0.76
				c0.34,0.31,0.59,0.67,0.77,1.08c0.18,0.41,0.27,0.9,0.25,1.45c-0.02,0.69-0.17,1.28-0.44,1.77c-0.27,0.48-0.63,0.87-1.08,1.18
				c-0.45,0.3-0.96,0.52-1.53,0.64c-0.57,0.13-1.16,0.18-1.77,0.17c-0.52-0.01-1.01-0.09-1.48-0.22c-0.47-0.13-0.91-0.3-1.32-0.49
				c-0.41-0.2-0.79-0.43-1.14-0.68c-0.35-0.26-0.65-0.53-0.92-0.8C352.41,49.75,352.68,49.49,353.23,48.97z"/>
			<path class="st23" d="M370.98,51.47c-0.49,0.58-1.01,0.98-1.54,1.17c-0.54,0.2-1.15,0.29-1.83,0.26
				c-0.72-0.02-1.34-0.17-1.88-0.44c-0.53-0.27-1-0.63-1.37-1.08c-0.37-0.44-0.65-0.97-0.84-1.57c-0.19-0.6-0.29-1.24-0.29-1.92
				c0-0.74,0.11-1.42,0.33-2.04c0.22-0.61,0.56-1.13,0.98-1.54c0.36-0.35,0.79-0.62,1.29-0.8c0.5-0.18,1.08-0.25,1.72-0.22
				c0.37,0.02,0.72,0.09,1.05,0.2c0.33,0.11,0.64,0.26,0.93,0.44c0.29,0.18,0.55,0.37,0.8,0.58c0.25,0.21,0.47,0.43,0.67,0.64
				c-0.52,0.43-0.78,0.65-1.29,1.08c-0.13-0.14-0.27-0.28-0.42-0.44c-0.15-0.15-0.31-0.29-0.49-0.42c-0.18-0.13-0.37-0.24-0.58-0.33
				c-0.21-0.09-0.43-0.14-0.66-0.15c-0.38-0.02-0.71,0.03-0.99,0.14c-0.28,0.11-0.5,0.28-0.68,0.5c-0.25,0.3-0.43,0.67-0.53,1.1
				c-0.1,0.43-0.15,0.88-0.15,1.35c0,0.49,0.04,0.94,0.13,1.34c0.08,0.4,0.23,0.74,0.43,1.03c0.2,0.29,0.46,0.51,0.75,0.68
				c0.3,0.17,0.66,0.26,1.1,0.28c0.19,0.01,0.39-0.02,0.59-0.08c0.2-0.06,0.4-0.15,0.58-0.26c0.19-0.11,0.36-0.23,0.51-0.37
				c0.16-0.14,0.29-0.27,0.4-0.41C370.2,50.7,370.46,50.96,370.98,51.47z"/>
			<path class="st23" d="M381.35,48.94c0,0.94-0.12,1.7-0.37,2.31c-0.25,0.6-0.64,1.11-1.18,1.51c-0.35,0.25-0.75,0.44-1.2,0.57
				c-0.45,0.13-0.96,0.17-1.52,0.13c-0.56-0.04-1.06-0.14-1.48-0.31c-0.42-0.17-0.82-0.4-1.19-0.7c-0.58-0.47-0.99-1.04-1.23-1.71
				c-0.25-0.67-0.37-1.46-0.37-2.34c0-0.86,0.11-1.6,0.33-2.19c0.22-0.6,0.59-1.11,1.09-1.52c0.38-0.3,0.8-0.52,1.26-0.67
				c0.46-0.15,0.98-0.2,1.58-0.16c0.62,0.04,1.16,0.17,1.61,0.38c0.45,0.21,0.84,0.48,1.18,0.8c0.58,0.52,0.97,1.1,1.17,1.73
				C381.24,47.4,381.35,48.12,381.35,48.94z M379.32,48.8c-0.01-0.59-0.06-1.09-0.15-1.5c-0.09-0.41-0.28-0.78-0.57-1.1
				c-0.2-0.22-0.43-0.39-0.67-0.51c-0.25-0.12-0.53-0.2-0.85-0.22c-0.32-0.02-0.61,0.02-0.86,0.12c-0.25,0.1-0.48,0.25-0.68,0.42
				c-0.28,0.26-0.47,0.59-0.58,1.01c-0.11,0.41-0.16,0.91-0.16,1.48c0,0.6,0.06,1.12,0.17,1.55c0.11,0.43,0.31,0.79,0.58,1.07
				c0.2,0.2,0.43,0.37,0.68,0.5c0.25,0.13,0.53,0.2,0.84,0.23c0.31,0.02,0.59-0.02,0.84-0.12c0.25-0.1,0.47-0.23,0.67-0.4
				c0.31-0.26,0.51-0.6,0.61-1.05C379.29,49.85,379.33,49.36,379.32,48.8z"/>
			<path class="st23" d="M383.64,44.58c0.81,0.06,1.22,0.09,2.03,0.14c0,2.3,0,3.46,0,5.76c0,0.23,0.02,0.46,0.07,0.7
				c0.05,0.24,0.14,0.45,0.27,0.65c0.13,0.2,0.32,0.36,0.56,0.49c0.24,0.13,0.56,0.21,0.94,0.24c0.3,0.02,0.56-0.02,0.8-0.12
				c0.23-0.1,0.43-0.24,0.58-0.42c0.15-0.17,0.27-0.37,0.35-0.6c0.08-0.22,0.12-0.45,0.12-0.68c0-2.3,0-3.46,0-5.76
				c0.81,0.06,1.22,0.09,2.03,0.14c0,3.67,0,5.51,0,9.18c-0.81-0.06-1.22-0.09-2.03-0.14c0-0.19,0-0.28,0-0.47
				c-0.38,0.24-0.77,0.38-1.15,0.42c-0.38,0.04-0.71,0.06-0.99,0.04c-0.56-0.04-1.07-0.17-1.51-0.38s-0.82-0.48-1.12-0.82
				c-0.31-0.33-0.54-0.72-0.7-1.17c-0.16-0.45-0.24-0.93-0.24-1.45C383.64,48.04,383.64,46.89,383.64,44.58z"/>
			<path class="st23" d="M398.32,54.65c-0.5-0.03-0.74-0.05-1.24-0.09c-0.42-0.03-0.79-0.12-1.11-0.27
				c-0.32-0.15-0.59-0.34-0.81-0.58c-0.22-0.24-0.38-0.51-0.49-0.82c-0.11-0.31-0.17-0.64-0.17-1c0-2.04,0-3.07,0-5.11
				c-0.45-0.03-0.67-0.05-1.11-0.08c0-0.58,0-0.86,0-1.44c0.45,0.03,0.67,0.05,1.11,0.08c0-1.2,0-1.79,0-2.99
				c0.79,0.06,1.19,0.08,1.98,0.14c0,1.2,0,1.79,0,2.99c0.74,0.05,1.11,0.08,1.85,0.13c0,0.58,0,0.86,0,1.44
				c-0.74-0.05-1.11-0.08-1.85-0.13c0,2.02,0,3.03,0,5.06c0,0.61,0.28,0.94,0.83,0.97c0.41,0.03,0.61,0.04,1.02,0.07
				C398.32,53.68,398.32,54,398.32,54.65z"/>
			<path class="st23" d="M400.93,52.22c0.4,0.41,0.82,0.75,1.28,1.02c0.45,0.27,0.95,0.42,1.49,0.46c0.69,0.04,1.2-0.04,1.52-0.26
				c0.32-0.21,0.48-0.52,0.48-0.92c0-0.26-0.08-0.49-0.24-0.68c-0.16-0.19-0.47-0.35-0.93-0.47c-0.57-0.14-0.86-0.22-1.44-0.36
				c-0.98-0.24-1.72-0.6-2.23-1.06s-0.75-1.02-0.75-1.65c0-0.37,0.07-0.72,0.21-1.06c0.14-0.33,0.35-0.62,0.65-0.87
				c0.29-0.24,0.67-0.43,1.12-0.56c0.45-0.13,0.99-0.17,1.62-0.13c0.69,0.04,1.35,0.2,1.98,0.47c0.62,0.27,1.18,0.61,1.67,1.03
				c-0.48,0.46-0.72,0.69-1.2,1.15c-0.46-0.34-0.86-0.59-1.22-0.75c-0.36-0.16-0.77-0.25-1.22-0.28c-0.6-0.04-1.01,0.06-1.25,0.29
				c-0.23,0.23-0.35,0.5-0.35,0.81c0,0.29,0.1,0.51,0.3,0.66c0.2,0.15,0.49,0.27,0.87,0.37c0.24,0.06,0.49,0.13,0.75,0.19
				c0.26,0.06,0.51,0.13,0.75,0.19c0.37,0.1,0.73,0.21,1.09,0.35c0.35,0.14,0.66,0.31,0.93,0.53c0.27,0.22,0.48,0.48,0.65,0.79
				c0.16,0.31,0.24,0.69,0.24,1.13c0,0.49-0.1,0.91-0.31,1.27c-0.21,0.35-0.49,0.64-0.85,0.86c-0.36,0.22-0.78,0.37-1.26,0.46
				c-0.48,0.09-0.99,0.12-1.55,0.08c-0.69-0.04-1.4-0.21-2.1-0.5c-0.71-0.29-1.37-0.75-1.98-1.36
				C400.14,52.94,400.4,52.7,400.93,52.22z"/>
			<path class="st23" d="M425.6,55.96c-0.88-0.02-1.33-0.03-2.21-0.05c-1.55-2.67-2.32-4.01-3.87-6.7c-0.96,1.08-1.44,1.61-2.4,2.68
				c0,1.53,0,2.29,0,3.82c-0.81-0.03-1.22-0.05-2.03-0.09c0-5.23,0-7.84,0-13.07c0.81,0.04,1.22,0.05,2.03,0.09
				c0,2.58,0,3.88,0,6.46c2.21-2.5,3.31-3.75,5.52-6.28c0.96,0.03,1.43,0.04,2.39,0.05c-1.69,1.95-2.53,2.93-4.22,4.86
				C422.72,51.04,423.68,52.69,425.6,55.96z"/>
			<path class="st23" d="M434.7,51.47c0,0.94-0.12,1.71-0.37,2.34c-0.25,0.62-0.64,1.16-1.18,1.6c-0.35,0.28-0.75,0.5-1.2,0.65
				c-0.45,0.16-0.96,0.24-1.52,0.23c-0.56,0-1.06-0.08-1.48-0.22c-0.42-0.15-0.82-0.36-1.19-0.64c-0.58-0.44-0.99-0.99-1.23-1.65
				c-0.25-0.66-0.37-1.44-0.37-2.33c0-0.86,0.11-1.6,0.33-2.21c0.22-0.61,0.59-1.14,1.09-1.57c0.38-0.32,0.8-0.56,1.26-0.73
				c0.46-0.17,0.98-0.25,1.58-0.25c0.62,0,1.16,0.09,1.61,0.27c0.45,0.18,0.84,0.42,1.18,0.71c0.58,0.48,0.97,1.02,1.17,1.64
				C434.6,49.94,434.7,50.66,434.7,51.47z M432.67,51.49c-0.01-0.59-0.06-1.09-0.15-1.49c-0.09-0.41-0.28-0.76-0.57-1.06
				c-0.2-0.2-0.43-0.36-0.67-0.47s-0.53-0.16-0.85-0.16c-0.32,0-0.61,0.06-0.86,0.18c-0.25,0.12-0.48,0.27-0.68,0.46
				c-0.28,0.27-0.47,0.62-0.58,1.04c-0.11,0.42-0.16,0.92-0.16,1.49c0,0.6,0.06,1.11,0.17,1.54c0.11,0.43,0.31,0.78,0.58,1.04
				c0.2,0.19,0.43,0.35,0.68,0.46c0.25,0.12,0.53,0.17,0.84,0.17s0.59-0.06,0.84-0.17s0.47-0.26,0.67-0.44
				c0.31-0.28,0.51-0.64,0.61-1.09C432.64,52.55,432.69,52.04,432.67,51.49z"/>
			<path class="st23" d="M441.87,49.01c-0.25-0.27-0.51-0.48-0.77-0.64c-0.26-0.16-0.52-0.23-0.75-0.22
				c-0.2,0.01-0.41,0.07-0.62,0.2c-0.21,0.13-0.4,0.29-0.57,0.5c-0.17,0.21-0.31,0.46-0.42,0.76c-0.11,0.3-0.16,0.61-0.16,0.95
				c0,2.14,0,3.21,0,5.35c-0.79,0.02-1.19,0.03-1.98,0.05c0-3.61,0-5.42,0-9.04c0.79-0.02,1.19-0.03,1.98-0.05c0,0.19,0,0.28,0,0.47
				c0.17-0.18,0.41-0.36,0.74-0.53c0.32-0.17,0.72-0.27,1.2-0.28c0.29-0.01,0.56,0.02,0.83,0.09c0.26,0.07,0.51,0.16,0.74,0.27
				c0.23,0.11,0.44,0.23,0.63,0.37c0.19,0.14,0.36,0.26,0.5,0.37C442.67,48.18,442.4,48.46,441.87,49.01z"/>
			<path class="st23" d="M445.66,51.72c0.02,0.77,0.2,1.36,0.54,1.77c0.39,0.48,0.99,0.71,1.79,0.68c0.39-0.02,0.79-0.15,1.19-0.39
				c0.4-0.25,0.79-0.61,1.17-1.1c0.53,0.42,0.8,0.63,1.33,1.04c-1.15,1.33-2.41,2-3.76,2.04c-1.31,0.04-2.34-0.28-3.05-0.94
				c-0.42-0.4-0.73-0.9-0.93-1.51c-0.2-0.61-0.3-1.32-0.31-2.12c-0.01-0.82,0.1-1.58,0.32-2.27c0.23-0.68,0.59-1.25,1.08-1.69
				c0.34-0.31,0.72-0.55,1.17-0.73c0.44-0.18,0.95-0.29,1.53-0.33c0.65-0.04,1.21,0.02,1.7,0.18c0.49,0.17,0.9,0.42,1.23,0.77
				c0.44,0.46,0.75,1.06,0.93,1.77c0.18,0.72,0.23,1.52,0.16,2.4C449.32,51.49,448.1,51.58,445.66,51.72z M449.8,49.91
				c0.02-0.37-0.03-0.71-0.16-1.02c-0.13-0.31-0.32-0.56-0.55-0.76c-0.36-0.3-0.81-0.43-1.34-0.39c-0.31,0.02-0.58,0.08-0.81,0.19
				c-0.23,0.1-0.42,0.25-0.59,0.42c-0.2,0.22-0.35,0.48-0.46,0.8c-0.1,0.32-0.18,0.66-0.22,1.04
				C447.32,50.1,448.14,50.04,449.8,49.91z"/>
			<path class="st23" d="M461.51,54.17c-0.79,0.11-1.19,0.17-1.98,0.27c0-0.15,0-0.23,0-0.38c-0.31,0.21-0.68,0.39-1.11,0.54
				c-0.43,0.15-0.87,0.25-1.29,0.3c-0.47,0.06-0.93,0.07-1.36,0c-0.42-0.07-0.8-0.2-1.12-0.41c-0.32-0.21-0.58-0.48-0.76-0.82
				c-0.19-0.34-0.28-0.75-0.28-1.21c0-0.32,0.05-0.66,0.15-1.01c0.1-0.35,0.28-0.68,0.53-0.99c0.25-0.31,0.6-0.57,1.03-0.8
				c0.44-0.23,0.99-0.38,1.66-0.46c1.02-0.12,1.53-0.18,2.55-0.32c0-0.19,0-0.29,0-0.49c0-0.25-0.03-0.48-0.1-0.69
				c-0.07-0.21-0.18-0.38-0.33-0.52c-0.16-0.14-0.36-0.24-0.61-0.3c-0.25-0.06-0.57-0.06-0.93-0.02c-0.5,0.05-0.95,0.23-1.35,0.53
				c-0.4,0.31-0.73,0.65-1.01,1.03c-0.53-0.41-0.8-0.62-1.33-1.03c0.23-0.35,0.47-0.64,0.72-0.89c0.25-0.25,0.52-0.46,0.82-0.63
				c0.29-0.17,0.62-0.3,0.97-0.4c0.35-0.1,0.75-0.18,1.19-0.23c0.83-0.1,1.5-0.08,2.01,0.07c0.51,0.15,0.92,0.37,1.2,0.67
				s0.48,0.63,0.58,1.01c0.1,0.38,0.14,0.74,0.14,1.1C461.51,50.52,461.51,51.74,461.51,54.17z M459.53,50.44
				c-0.94,0.12-1.41,0.18-2.35,0.29c-0.34,0.04-0.61,0.11-0.82,0.2c-0.21,0.1-0.37,0.21-0.49,0.34c-0.12,0.13-0.2,0.28-0.24,0.45
				c-0.04,0.17-0.06,0.33-0.06,0.5c0,0.17,0.03,0.32,0.08,0.47c0.05,0.14,0.14,0.27,0.27,0.37c0.13,0.1,0.3,0.17,0.51,0.21
				c0.22,0.04,0.48,0.05,0.79,0.01c0.55-0.07,0.98-0.18,1.29-0.31c0.31-0.13,0.53-0.27,0.66-0.42c0.15-0.16,0.25-0.38,0.3-0.65
				c0.04-0.27,0.06-0.52,0.06-0.76C459.53,50.87,459.53,50.72,459.53,50.44z"/>
		</g>
	</g>
</g>
<g id="저장용">
	<g>
		<g>
			<g>
				<polygon class="st26" points="210.05,332.86 219.49,332.86 219.98,327.81 210.05,327.81 				"/>
				<path class="st26" d="M240.38,321.82v-26.75h-30.32v26.75h10.51l0.64-6.55h7.67l0.64,6.55c1.61,0,4.35,0,7.46,0
					C238.18,321.82,239.33,321.82,240.38,321.82z"/>
				<path class="st26" d="M239.5,327.81c-3.89,0-7.33,0-9.41,0l0.49,5.05h9.79v-5.05C240.09,327.81,239.8,327.81,239.5,327.81z"/>
				<path class="st27" d="M240.38,327.81v-5.99c-1.05,0-2.2,0-3.4,0c-3.11,0-5.85,0-7.46,0l0.58,5.99c2.08,0,5.52,0,9.41,0
					C239.8,327.81,240.09,327.81,240.38,327.81z"/>
				<polygon class="st27" points="210.05,327.81 219.98,327.81 220.57,321.82 210.05,321.82 				"/>
			</g>
			<g>
				<path class="st27" d="M214.76,329.87c-2.33,0-4.41,1.17-5.75,2.99h11.49C219.16,331.04,217.09,329.87,214.76,329.87z"/>
				<path class="st28" d="M209.01,332.86c-0.98,1.34-1.57,3.03-1.57,4.86h14.64c0-1.84-0.59-3.53-1.57-4.86H209.01z"/>
			</g>
			<g>
				<path class="st27" d="M235.84,329.87c-2.33,0-4.41,1.17-5.75,2.99h11.49C240.25,331.04,238.18,329.87,235.84,329.87z"/>
				<path class="st28" d="M230.1,332.86c-0.98,1.34-1.57,3.03-1.57,4.86h14.64c0-1.84-0.59-3.53-1.57-4.86H230.1z"/>
			</g>
		</g>
		<rect x="219.27" y="267.95" class="st29" width="11.22" height="14.59"/>
		<g>
			<g>
				<path class="st30" d="M238.51,270.76h-26.43c-3.08,0-5.59-2.5-5.59-5.59v-10.5h37.6v10.5
					C244.1,268.26,241.6,270.76,238.51,270.76z"/>
				<g>
					<defs>
						<path id="XMLID_8_" d="M242.14,255.05c0,10.18-7.54,18.42-16.83,18.42s-16.83-8.25-16.83-18.42H242.14z"/>
					</defs>
					<use xlink:href="#XMLID_8_"  style="overflow:visible;fill:#FBE9BD;"/>
					<clipPath id="XMLID_12_">
						<use xlink:href="#XMLID_8_"  style="overflow:visible;"/>
					</clipPath>
					<ellipse class="st31" cx="236.78" cy="267.3" rx="3.83" ry="4.58"/>
					<use xlink:href="#XMLID_8_"  style="overflow:visible;fill:none;stroke:#231F20;stroke-width:0.9353;stroke-miterlimit:10;"/>
				</g>
				<g>
					<defs>
						<path id="XMLID_7_" d="M208.47,255.05c0,10.18,7.54,18.42,16.83,18.42s16.83-8.25,16.83-18.42H208.47z"/>
					</defs>
					<use xlink:href="#XMLID_7_"  style="overflow:visible;fill:#FBE9BD;"/>
					<clipPath id="XMLID_13_">
						<use xlink:href="#XMLID_7_"  style="overflow:visible;"/>
					</clipPath>
					<ellipse class="st32" cx="213.82" cy="267.3" rx="3.83" ry="4.58"/>
					<ellipse class="st32" cx="237.25" cy="267.58" rx="3.83" ry="4.58"/>
					<use xlink:href="#XMLID_7_"  style="overflow:visible;fill:none;stroke:#231F20;stroke-width:0.9353;stroke-miterlimit:10;"/>
				</g>
				<g>
					<g>
						<circle class="st33" cx="217.16" cy="259.26" r="2.15"/>
					</g>
					<circle class="st33" cx="233.44" cy="259.26" r="2.15"/>
				</g>
				<g>
					<g>
						<path class="st9" d="M219.87,269.37c3.19,1.97,7.66,1.97,10.85,0c0.61-0.38,0.05-1.35-0.57-0.97c-2.87,1.77-6.86,1.77-9.72,0
							C219.82,268.02,219.26,268.99,219.87,269.37L219.87,269.37z"/>
					</g>
				</g>
			</g>
			<g>
				<path class="st34" d="M207.34,248.87c0-9.81,7.96-17.77,17.77-17.77c9.81,0,17.77,7.96,17.77,17.77H207.34z"/>
				<g>
					<path class="st35" d="M239.89,235.17l-2.34-2.34c-0.66,0.81-1.17,1.74-1.5,2.75l3.84,3.84V235.17z"/>
					<path class="st36" d="M239.89,230.84c-0.9,0.52-1.69,1.2-2.34,1.99l2.34,2.34V230.84z"/>
					<path class="st36" d="M242.23,232.83c-0.65-0.8-1.44-1.47-2.34-1.99v4.33L242.23,232.83z"/>
					<path class="st36" d="M239.89,239.43l3.84-3.84c-0.33-1.01-0.84-1.94-1.5-2.75l-2.34,2.34V239.43z"/>
					<path class="st36" d="M239.89,239.43l-3.84-3.84c-0.27,0.83-0.41,1.71-0.41,2.63c0,0.33,0.02,0.65,0.06,0.97l4.2,4.2V239.43z"
						/>
					<path class="st37" d="M243.73,235.59l-3.84,3.84v3.95l4.2-4.2c0.04-0.32,0.06-0.64,0.06-0.97
						C244.15,237.3,244,236.41,243.73,235.59z"/>
					<path class="st36" d="M235.69,239.18c0.31,2.74,1.92,5.08,4.2,6.4v-2.2L235.69,239.18z"/>
					<path class="st36" d="M239.89,245.58c2.28-1.32,3.89-3.66,4.2-6.4l-4.2,4.2V245.58z"/>
				</g>
				<g>
					<g>
						<path class="st14" d="M226.19,243.82c-0.93,0-2.05,0.66-2.5,1.47l-1.16,2.1c-0.45,0.81-0.05,1.47,0.87,1.47h2.33
							c0.93,0,2.05-0.66,2.5-1.47l1.16-2.1c0.45-0.81,0.05-1.47-0.87-1.47H226.19z"/>
						<path class="st38" d="M226.19,243.82c-0.93,0-2.05,0.66-2.5,1.47l-1.16,2.1c-0.45,0.81-0.05,1.47,0.87,1.47h2.33
							c0.93,0,2.05-0.66,2.5-1.47l1.16-2.1c0.45-0.81,0.05-1.47-0.87-1.47H226.19z"/>
					</g>
					<g id="XMLID_1_">
						<path class="st14" d="M220.49,243.82c-0.93,0-2.05,0.66-2.5,1.47l-1.16,2.1c-0.45,0.81-0.05,1.47,0.87,1.47h2.33
							c0.93,0,2.05-0.66,2.5-1.47l1.16-2.1c0.45-0.81,0.05-1.47-0.87-1.47H220.49z"/>
						<path class="st38" d="M220.49,243.82c-0.93,0-2.05,0.66-2.5,1.47l-1.16,2.1c-0.45,0.81-0.05,1.47,0.87,1.47h2.33
							c0.93,0,2.05-0.66,2.5-1.47l1.16-2.1c0.45-0.81,0.05-1.47-0.87-1.47H220.49z"/>
					</g>
					<g>
						<path class="st14" d="M214.79,243.82c-0.93,0-2.05,0.66-2.5,1.47l-1.16,2.1c-0.45,0.81-0.05,1.47,0.87,1.47h2.33
							c0.93,0,2.05-0.66,2.5-1.47l1.16-2.1c0.45-0.81,0.05-1.47-0.87-1.47H214.79z"/>
						<path class="st38" d="M214.79,243.82c-0.93,0-2.05,0.66-2.5,1.47l-1.16,2.1c-0.45,0.81-0.05,1.47,0.87,1.47h2.33
							c0.93,0,2.05-0.66,2.5-1.47l1.16-2.1c0.45-0.81,0.05-1.47-0.87-1.47H214.79z"/>
					</g>
					<g>
						<path class="st14" d="M209.12,243.82c-0.93,0-1.68,0.76-1.68,1.68v1.68c0,0.93,0.65,1.68,1.44,1.68
							c0.79,0,1.81-0.66,2.26-1.47l1.16-2.1c0.45-0.81,0.05-1.47-0.87-1.47H209.12z"/>
						<path class="st38" d="M209.12,243.82c-0.93,0-1.68,0.76-1.68,1.68v1.68c0,0.93,0.65,1.68,1.44,1.68
							c0.79,0,1.81-0.66,2.26-1.47l1.16-2.1c0.45-0.81,0.05-1.47-0.87-1.47H209.12z"/>
					</g>
					<g>
						<path class="st14" d="M239.64,247.4c-0.45,0.81-0.05,1.47,0.87,1.47h0.69c0.93,0,1.68-0.76,1.68-1.68v-1.68
							c0-0.93-0.29-1.68-0.64-1.68c-0.35,0-1,0.66-1.45,1.47L239.64,247.4z"/>
						<path class="st38" d="M239.64,247.4c-0.45,0.81-0.05,1.47,0.87,1.47h0.69c0.93,0,1.68-0.76,1.68-1.68v-1.68
							c0-0.93-0.29-1.68-0.64-1.68c-0.35,0-1,0.66-1.45,1.47L239.64,247.4z"/>
					</g>
					<g>
						<path class="st14" d="M231.89,243.82c-0.93,0-2.05,0.66-2.5,1.47l-1.16,2.1c-0.45,0.81-0.05,1.47,0.87,1.47h2.33
							c0.93,0,2.05-0.66,2.5-1.47l1.16-2.1c0.45-0.81,0.05-1.47-0.87-1.47H231.89z"/>
						<path class="st38" d="M231.89,243.82c-0.93,0-2.05,0.66-2.5,1.47l-1.16,2.1c-0.45,0.81-0.05,1.47,0.87,1.47h2.33
							c0.93,0,2.05-0.66,2.5-1.47l1.16-2.1c0.45-0.81,0.05-1.47-0.87-1.47H231.89z"/>
					</g>
					<g>
						<path class="st14" d="M237.59,243.82c-0.93,0-2.05,0.66-2.5,1.47l-1.16,2.1c-0.45,0.81-0.05,1.47,0.87,1.47h2.33
							c0.93,0,2.05-0.66,2.5-1.47l1.16-2.1c0.45-0.81,0.05-1.47-0.87-1.47H237.59z"/>
						<path class="st38" d="M237.59,243.82c-0.93,0-2.05,0.66-2.5,1.47l-1.16,2.1c-0.45,0.81-0.05,1.47,0.87,1.47h2.33
							c0.93,0,2.05-0.66,2.5-1.47l1.16-2.1c0.45-0.81,0.05-1.47-0.87-1.47H237.59z"/>
					</g>
				</g>
				<g>
					<path class="st16" d="M246.76,252.16c0.8,1.07,0.36,1.95-0.98,1.95h-40.96c-1.34,0-1.78-0.88-0.98-1.95l1-1.34
						c0.8-1.07,2.55-1.95,3.89-1.95h33.13c1.34,0,3.09,0.88,3.89,1.95L246.76,252.16z"/>
					<path class="st38" d="M246.76,252.16c0.8,1.07,0.36,1.95-0.98,1.95h-40.96c-1.34,0-1.78-0.88-0.98-1.95l1-1.34
						c0.8-1.07,2.55-1.95,3.89-1.95h33.13c1.34,0,3.09,0.88,3.89,1.95L246.76,252.16z"/>
				</g>
			</g>
		</g>
		<g>
			<g>
				<g>
					<g>
						<path class="st39" d="M212.24,280.24c0.4-2.25-0.54-4.3-2.09-4.58c-1.55-0.27-3.13,1.33-3.53,3.58l-3.11,17.57l5.63,0.93
							L212.24,280.24z"/>
					</g>
					<path class="st40" d="M203.51,296.81l-0.39,2.18c-0.4,2.25,0.54,4.3,2.09,4.58s3.13-1.33,3.53-3.58l0.4-2.25L203.51,296.81z"/>
				</g>
				<g>
					<path class="st39" d="M238.45,280.22c-0.39-2.25,0.55-4.3,2.11-4.57c1.55-0.27,3.13,1.34,3.52,3.6l3.04,17.58l-5.63,0.91
						L238.45,280.22z"/>
					<path class="st40" d="M247.11,296.83l0.38,2.18c0.39,2.25-0.55,4.3-2.11,4.57c-1.55,0.27-3.13-1.34-3.52-3.6l-0.39-2.25
						L247.11,296.83z"/>
				</g>
			</g>
			<g>
				<path class="st19" d="M215.57,304.95c0-0.62,1.26-1.12,2.81-1.12h13.84c1.54,0,2.81,0.51,2.81,1.12s1.26,1.12,2.81,1.12h4.49
					c1.54,0,2.59-1.24,2.33-2.77l-4.67-27.39c-0.26-1.52-1.73-2.77-3.28-2.77h-0.47c-1.54,0-2.81,0.76-2.81,1.68
					c0,0.93-1.26,1.68-2.81,1.68h-10.66c-1.54,0-2.81-0.76-2.81-1.68c0-0.93-1.26-1.68-2.81-1.68h-0.47c-1.54,0-3.02,1.24-3.28,2.77
					l-4.67,27.39c-0.26,1.52,0.79,2.77,2.33,2.77h4.49C214.31,306.08,215.57,305.57,215.57,304.95z"/>
				<path class="st41" d="M215.57,304.95c0-0.62,1.26-1.12,2.81-1.12h13.84c1.54,0,2.81,0.51,2.81,1.12s1.26,1.12,2.81,1.12h4.49
					c1.54,0,2.59-1.24,2.33-2.77l-4.67-27.39c-0.26-1.52-1.73-2.77-3.28-2.77h-0.47c-1.54,0-2.81,0.76-2.81,1.68
					c0,0.93-1.26,1.68-2.81,1.68h-10.66c-1.54,0-2.81-0.76-2.81-1.68c0-0.93-1.26-1.68-2.81-1.68h-0.47c-1.54,0-3.02,1.24-3.28,2.77
					l-4.67,27.39c-0.26,1.52,0.79,2.77,2.33,2.77h4.49C214.31,306.08,215.57,305.57,215.57,304.95z"/>
			</g>
		</g>
		<g>
			<rect x="218.41" y="281.98" class="st42" width="13.79" height="3.2"/>
			<polygon class="st43" points="218.41,285.18 218.41,294.22 225.3,297.41 232.19,294.22 232.19,285.18 			"/>
		</g>
	</g>
	<text transform="matrix(1 0 0 1 322.0019 268.3243)" class="st23 st24 st44">걸스카우트</text>
	<g>
		<g>
			<path class="st23" d="M286.23,313.89c0,1.22-0.17,2.36-0.52,3.43c-0.35,1.07-0.9,2.02-1.67,2.86c-0.77,0.84-1.76,1.53-2.99,2.1
				c-1.23,0.57-2.72,0.94-4.46,1.13c-1.87,0.21-3.46,0.09-4.79-0.37c-1.33-0.46-2.41-1.17-3.24-2.12c-0.97-1.11-1.67-2.5-2.08-4.18
				c-0.41-1.68-0.61-3.52-0.61-5.53c0-2.06,0.19-3.98,0.57-5.77c0.38-1.79,1.04-3.36,1.97-4.7c0.84-1.21,1.91-2.22,3.24-3
				c1.32-0.79,2.97-1.3,4.92-1.52c1.31-0.15,2.46-0.13,3.45,0.06c0.99,0.19,1.86,0.47,2.61,0.85c0.75,0.38,1.39,0.81,1.91,1.29
				c0.52,0.48,0.99,0.93,1.4,1.35c-1.17,0.98-1.76,1.47-2.94,2.45c-0.76-1.03-1.69-1.79-2.77-2.27c-1.09-0.49-2.31-0.66-3.67-0.51
				c-1.29,0.14-2.34,0.49-3.17,1.03c-0.82,0.54-1.47,1.23-1.95,2.05c-0.63,1.08-1.06,2.33-1.25,3.73c-0.19,1.4-0.27,2.88-0.29,4.39
				c-0.01,1.57,0.06,3.02,0.25,4.31c0.19,1.29,0.56,2.36,1.11,3.19c0.5,0.77,1.18,1.34,2.02,1.7c0.85,0.36,1.94,0.47,3.28,0.32
				c0.74-0.08,1.44-0.23,2.11-0.45c0.67-0.21,1.26-0.55,1.79-1.01c0.52-0.46,0.94-1.05,1.25-1.77c0.31-0.72,0.47-1.65,0.47-2.77
				c0-1.28,0-1.92,0-3.19c-2.55,0.25-3.82,0.38-6.37,0.67c0-1.29,0-1.94,0-3.23c4.17-0.47,6.25-0.68,10.42-1.04
				C286.23,310,286.23,311.3,286.23,313.89z"/>
			<path class="st23" d="M294.71,299.05c-1.76,0.11-2.64,0.18-4.4,0.31c0-1.52,0-2.28,0-3.8c1.76-0.13,2.64-0.2,4.4-0.31
				C294.71,296.77,294.71,297.53,294.71,299.05z M294.53,321.26c-1.59,0.1-2.38,0.16-3.97,0.28c0-7.2,0-10.8,0-18
				c1.59-0.12,2.38-0.18,3.97-0.28C294.53,310.46,294.53,314.06,294.53,321.26z"/>
			<path class="st23" d="M309.96,307c-0.5-0.53-1.01-0.96-1.54-1.28c-0.53-0.32-1.03-0.47-1.5-0.45c-0.41,0.02-0.82,0.15-1.23,0.41
				c-0.42,0.26-0.8,0.59-1.15,1.02c-0.35,0.42-0.63,0.93-0.84,1.52c-0.21,0.6-0.32,1.23-0.32,1.9c0,4.26,0,6.39,0,10.65
				c-1.58,0.07-2.36,0.11-3.94,0.2c0-7.2,0-10.8,0-18c1.58-0.08,2.36-0.12,3.94-0.19c0,0.37,0,0.56,0,0.93
				c0.33-0.37,0.82-0.74,1.47-1.09s1.44-0.54,2.4-0.58c0.57-0.02,1.12,0.04,1.65,0.18c0.52,0.14,1.01,0.32,1.47,0.55
				c0.45,0.23,0.87,0.48,1.25,0.75c0.38,0.28,0.72,0.53,1,0.76C311.55,305.36,311.02,305.91,309.96,307z"/>
			<path class="st23" d="M315.29,320.39c0-10.41,0-15.62,0-26.04c1.59-0.03,2.38-0.05,3.97-0.07c0,10.41,0,15.62,0,26.04
				C317.68,320.34,316.88,320.36,315.29,320.39z"/>
			<path class="st23" d="M336.34,314.08c0.31,0.36,0.72,0.76,1.22,1.2c0.5,0.44,1.06,0.86,1.68,1.25c0.62,0.4,1.29,0.72,2,0.98
				c0.72,0.26,1.44,0.38,2.15,0.38c0.55-0.01,1.14-0.08,1.77-0.22c0.63-0.14,1.22-0.38,1.75-0.72c0.54-0.34,0.98-0.8,1.34-1.37
				c0.36-0.57,0.57-1.28,0.61-2.11c0.03-0.55-0.07-1.04-0.29-1.48c-0.21-0.44-0.52-0.84-0.91-1.2c-0.39-0.36-0.85-0.67-1.36-0.92
				c-0.51-0.25-1.07-0.49-1.66-0.66c-0.47-0.14-0.98-0.28-1.5-0.44c-0.53-0.16-1.03-0.3-1.5-0.43c-1.05-0.31-2.02-0.7-2.9-1.18
				c-0.88-0.47-1.64-1-2.27-1.58c-0.63-0.58-1.12-1.23-1.47-1.94c-0.35-0.71-0.52-1.47-0.52-2.28c0-0.93,0.15-1.85,0.47-2.76
				c0.31-0.9,0.81-1.71,1.5-2.42c0.69-0.71,1.61-1.28,2.76-1.71c1.15-0.43,2.54-0.63,4.19-0.58c1.03,0.03,1.97,0.17,2.83,0.42
				c0.86,0.25,1.65,0.57,2.36,0.95c0.72,0.38,1.35,0.79,1.9,1.23c0.55,0.44,1.04,0.84,1.47,1.22c-1.06,0.96-1.59,1.45-2.65,2.42
				c-0.33-0.32-0.73-0.66-1.18-1.03c-0.45-0.36-0.94-0.68-1.45-0.96c-0.51-0.28-1.06-0.52-1.63-0.71c-0.57-0.2-1.16-0.3-1.75-0.32
				c-0.86-0.02-1.59,0.09-2.2,0.34c-0.61,0.25-1.1,0.58-1.47,0.99c-0.37,0.41-0.64,0.88-0.82,1.4c-0.18,0.52-0.27,1.03-0.27,1.54
				c0,0.48,0.11,0.92,0.34,1.32c0.23,0.4,0.52,0.75,0.88,1.04c0.36,0.29,0.76,0.55,1.2,0.78c0.44,0.23,0.9,0.39,1.31,0.53
				c0.54,0.18,1.09,0.38,1.63,0.53c0.54,0.15,1.08,0.29,1.63,0.42c1.08,0.3,2.07,0.64,2.98,1.04c0.91,0.4,1.7,0.91,2.37,1.52
				c0.67,0.61,1.18,1.33,1.54,2.16c0.36,0.83,0.53,1.8,0.5,2.89c-0.04,1.38-0.34,2.56-0.88,3.52c-0.54,0.96-1.26,1.74-2.15,2.34
				c-0.9,0.6-1.91,1.03-3.05,1.28c-1.14,0.25-2.31,0.36-3.53,0.33c-1.03-0.03-2.01-0.17-2.94-0.43c-0.93-0.26-1.81-0.59-2.64-0.99
				c-0.83-0.4-1.58-0.85-2.28-1.36c-0.69-0.51-1.3-1.05-1.83-1.6C334.71,315.65,335.25,315.13,336.34,314.08z"/>
			<path class="st23" d="M371.71,319.07c-0.98,1.16-2,1.94-3.08,2.34c-1.07,0.4-2.29,0.57-3.65,0.52c-1.43-0.05-2.68-0.34-3.74-0.88
				c-1.06-0.54-1.99-1.26-2.74-2.15c-0.74-0.88-1.3-1.93-1.68-3.12c-0.38-1.19-0.57-2.46-0.57-3.83c0-1.48,0.22-2.84,0.66-4.06
				c0.44-1.22,1.11-2.25,1.95-3.07c0.72-0.7,1.58-1.24,2.58-1.6c1-0.36,2.15-0.51,3.44-0.44c0.74,0.04,1.44,0.17,2.09,0.4
				c0.66,0.23,1.27,0.52,1.84,0.87c0.57,0.35,1.1,0.74,1.59,1.16c0.49,0.42,0.94,0.85,1.34,1.28c-1.03,0.86-1.55,1.29-2.58,2.15
				c-0.26-0.28-0.54-0.57-0.84-0.87c-0.3-0.3-0.63-0.58-0.98-0.84c-0.36-0.26-0.75-0.48-1.16-0.65c-0.42-0.18-0.85-0.28-1.31-0.3
				c-0.76-0.04-1.42,0.05-1.97,0.28c-0.55,0.22-1,0.56-1.36,0.99c-0.5,0.6-0.85,1.33-1.06,2.19c-0.2,0.86-0.3,1.76-0.3,2.69
				c0,0.98,0.08,1.87,0.25,2.67c0.17,0.8,0.45,1.48,0.86,2.05c0.41,0.57,0.91,1.02,1.5,1.35c0.6,0.33,1.32,0.51,2.18,0.56
				c0.38,0.02,0.78-0.03,1.18-0.15c0.41-0.12,0.79-0.29,1.16-0.51c0.37-0.22,0.71-0.46,1.02-0.73c0.31-0.27,0.57-0.54,0.79-0.82
				C370.16,317.54,370.68,318.05,371.71,319.07z"/>
			<path class="st23" d="M392.36,314.03c0,1.86-0.25,3.4-0.74,4.59c-0.49,1.2-1.27,2.2-2.35,3.01c-0.69,0.5-1.49,0.88-2.39,1.13
				c-0.9,0.25-1.91,0.34-3.03,0.27c-1.12-0.07-2.1-0.28-2.94-0.62c-0.84-0.34-1.63-0.81-2.37-1.4c-1.15-0.93-1.97-2.07-2.46-3.41
				c-0.49-1.34-0.74-2.9-0.74-4.67c0-1.72,0.22-3.18,0.66-4.37c0.44-1.19,1.17-2.22,2.17-3.02c0.75-0.6,1.6-1.04,2.51-1.33
				c0.91-0.29,1.96-0.4,3.16-0.32c1.24,0.08,2.31,0.33,3.21,0.75c0.9,0.42,1.68,0.95,2.35,1.59c1.15,1.03,1.93,2.19,2.33,3.46
				C392.16,310.96,392.36,312.41,392.36,314.03z M388.32,313.76c-0.02-1.17-0.13-2.17-0.3-3c-0.18-0.82-0.56-1.55-1.13-2.19
				c-0.41-0.43-0.85-0.77-1.34-1.02c-0.49-0.25-1.06-0.39-1.7-0.43c-0.64-0.04-1.22,0.04-1.72,0.25c-0.5,0.21-0.95,0.49-1.36,0.85
				c-0.55,0.52-0.93,1.19-1.15,2.01c-0.21,0.82-0.32,1.81-0.32,2.96c0,1.2,0.11,2.22,0.34,3.09c0.23,0.86,0.61,1.58,1.16,2.13
				c0.4,0.41,0.86,0.74,1.36,1c0.5,0.26,1.06,0.41,1.68,0.45c0.62,0.04,1.18-0.04,1.66-0.23c0.49-0.2,0.94-0.46,1.34-0.79
				c0.62-0.51,1.03-1.21,1.22-2.09C388.26,315.85,388.34,314.86,388.32,313.76z"/>
			<path class="st23" d="M396.95,305.35c1.62,0.11,2.43,0.17,4.05,0.28c0,4.59,0,6.89,0,11.48c0,0.45,0.05,0.92,0.14,1.39
				c0.1,0.47,0.27,0.9,0.53,1.29c0.26,0.39,0.64,0.71,1.12,0.98c0.49,0.26,1.11,0.42,1.87,0.47c0.59,0.04,1.12-0.04,1.59-0.25
				c0.46-0.21,0.85-0.48,1.16-0.83c0.31-0.35,0.54-0.74,0.69-1.19c0.15-0.44,0.23-0.89,0.23-1.35c0-4.59,0-6.89,0-11.48
				c1.62,0.12,2.43,0.17,4.05,0.29c0,7.32,0,10.97,0,18.29c-1.62-0.12-2.43-0.17-4.05-0.29c0-0.37,0-0.56,0-0.93
				c-0.76,0.47-1.53,0.75-2.29,0.84c-0.76,0.09-1.42,0.11-1.97,0.07c-1.12-0.08-2.12-0.33-3.01-0.75c-0.88-0.42-1.63-0.96-2.24-1.63
				c-0.61-0.66-1.07-1.44-1.4-2.34c-0.32-0.89-0.48-1.86-0.48-2.88C396.95,312.23,396.95,309.94,396.95,305.35z"/>
			<path class="st23" d="M426.19,325.41c-0.99-0.07-1.48-0.1-2.47-0.17c-0.84-0.06-1.58-0.23-2.22-0.53
				c-0.64-0.3-1.18-0.68-1.61-1.15c-0.43-0.47-0.76-1.02-0.98-1.63c-0.23-0.61-0.34-1.28-0.34-2c0-4.07,0-6.11,0-10.19
				c-0.89-0.06-1.33-0.09-2.22-0.16c0-1.15,0-1.72,0-2.87c0.89,0.06,1.33,0.09,2.22,0.16c0-2.38,0-3.57,0-5.95
				c1.58,0.11,2.36,0.17,3.94,0.28c0,2.38,0,3.57,0,5.95c1.47,0.1,2.21,0.15,3.69,0.25c0,1.15,0,1.72,0,2.87
				c-1.47-0.1-2.21-0.15-3.69-0.25c0,4.03,0,6.05,0,10.08c0,1.22,0.55,1.87,1.65,1.94c0.82,0.06,1.22,0.08,2.04,0.14
				C426.19,323.47,426.19,324.12,426.19,325.41z"/>
			<path class="st23" d="M431.38,320.56c0.79,0.82,1.64,1.49,2.54,2.03c0.91,0.54,1.9,0.84,2.97,0.91c1.38,0.09,2.39-0.08,3.03-0.51
				c0.63-0.43,0.95-1.04,0.95-1.83c0-0.53-0.16-0.98-0.48-1.36c-0.32-0.38-0.94-0.69-1.84-0.94c-1.15-0.29-1.72-0.43-2.86-0.72
				c-1.96-0.48-3.44-1.19-4.44-2.12c-1-0.93-1.5-2.02-1.5-3.29c0-0.74,0.14-1.44,0.41-2.11c0.27-0.66,0.7-1.24,1.29-1.73
				c0.59-0.49,1.33-0.86,2.24-1.11c0.91-0.25,1.98-0.34,3.22-0.26c1.38,0.09,2.7,0.4,3.94,0.94c1.24,0.54,2.35,1.22,3.33,2.05
				c-0.96,0.92-1.44,1.38-2.4,2.3c-0.91-0.68-1.72-1.17-2.43-1.49c-0.72-0.32-1.53-0.51-2.43-0.56c-1.19-0.08-2.02,0.12-2.49,0.58
				c-0.47,0.46-0.7,1-0.7,1.62c0,0.57,0.2,1.01,0.59,1.31c0.39,0.3,0.98,0.54,1.74,0.74c0.48,0.12,0.97,0.25,1.49,0.38
				c0.51,0.13,1.01,0.26,1.49,0.38c0.74,0.19,1.46,0.42,2.17,0.69c0.7,0.27,1.32,0.62,1.86,1.06c0.54,0.44,0.97,0.97,1.29,1.58
				c0.32,0.62,0.48,1.37,0.48,2.25c0,0.98-0.21,1.82-0.63,2.53c-0.42,0.71-0.98,1.28-1.7,1.71c-0.72,0.44-1.55,0.74-2.51,0.92
				c-0.95,0.18-1.98,0.24-3.08,0.17c-1.38-0.09-2.78-0.42-4.19-1c-1.41-0.58-2.72-1.49-3.94-2.72
				C429.81,322.01,430.34,321.52,431.38,320.56z"/>
			<path class="st23" d="M480.53,328.03c-1.76-0.03-2.64-0.05-4.4-0.09c-3.08-5.32-4.63-8-7.71-13.35
				c-1.91,2.14-2.87,3.21-4.78,5.34c0,3.04,0,4.56,0,7.6c-1.62-0.06-2.43-0.1-4.05-0.17c0-10.41,0-15.62,0-26.04
				c1.62,0.07,2.43,0.11,4.05,0.17c0,5.15,0,7.72,0,12.87c4.4-4.97,6.59-7.47,10.99-12.51c1.9,0.05,2.86,0.07,4.76,0.11
				c-3.36,3.89-5.05,5.83-8.41,9.68C474.8,318.23,476.71,321.5,480.53,328.03z"/>
			<path class="st23" d="M498.68,319.08c0,1.86-0.25,3.42-0.74,4.65c-0.49,1.24-1.27,2.3-2.35,3.2c-0.69,0.56-1.49,0.99-2.39,1.3
				c-0.9,0.31-1.91,0.47-3.03,0.47c-1.12,0-2.1-0.15-2.94-0.44c-0.84-0.29-1.63-0.72-2.37-1.28c-1.15-0.87-1.97-1.97-2.46-3.3
				c-0.49-1.32-0.74-2.87-0.74-4.64c0-1.72,0.22-3.19,0.66-4.4c0.44-1.21,1.17-2.27,2.17-3.13c0.75-0.64,1.6-1.12,2.51-1.46
				c0.91-0.34,1.96-0.51,3.16-0.5c1.24,0,2.31,0.18,3.21,0.54c0.9,0.36,1.68,0.83,2.35,1.42c1.15,0.95,1.93,2.04,2.33,3.28
				C498.48,316.02,498.68,317.46,498.68,319.08z M494.64,319.12c-0.02-1.17-0.13-2.16-0.3-2.98c-0.18-0.81-0.56-1.52-1.13-2.11
				c-0.41-0.41-0.85-0.72-1.34-0.93c-0.49-0.22-1.06-0.32-1.7-0.32c-0.64,0-1.22,0.12-1.72,0.35c-0.5,0.24-0.95,0.54-1.36,0.92
				c-0.55,0.55-0.93,1.24-1.15,2.07c-0.21,0.84-0.32,1.83-0.32,2.97c0,1.2,0.11,2.22,0.34,3.07c0.23,0.85,0.61,1.55,1.16,2.07
				c0.4,0.39,0.86,0.69,1.36,0.92c0.5,0.23,1.06,0.35,1.68,0.35c0.62,0,1.18-0.11,1.66-0.34c0.49-0.23,0.94-0.52,1.34-0.88
				c0.62-0.55,1.03-1.28,1.22-2.17C494.58,321.22,494.66,320.22,494.64,319.12z"/>
			<path class="st23" d="M512.96,314.18c-0.5-0.53-1.01-0.95-1.54-1.27c-0.53-0.31-1.03-0.46-1.5-0.45
				c-0.41,0.01-0.82,0.15-1.23,0.4c-0.42,0.25-0.8,0.59-1.15,1c-0.35,0.42-0.63,0.92-0.84,1.51c-0.21,0.59-0.32,1.22-0.32,1.89
				c0,4.26,0,6.39,0,10.65c-1.58,0.04-2.36,0.06-3.94,0.09c0-7.2,0-10.8,0-18c1.58-0.03,2.36-0.05,3.94-0.09c0,0.37,0,0.56,0,0.93
				c0.33-0.37,0.82-0.72,1.47-1.07s1.44-0.53,2.4-0.56c0.57-0.02,1.12,0.04,1.65,0.17c0.52,0.14,1.01,0.31,1.47,0.53
				c0.45,0.22,0.87,0.46,1.25,0.73c0.38,0.27,0.72,0.52,1,0.74C514.55,312.52,514.02,313.07,512.96,314.18z"/>
			<path class="st23" d="M520.52,319.58c0.05,1.53,0.4,2.71,1.07,3.52c0.78,0.96,1.97,1.41,3.57,1.34c0.78-0.03,1.57-0.29,2.37-0.78
				c0.8-0.49,1.58-1.22,2.34-2.19c1.06,0.83,1.59,1.25,2.65,2.07c-2.29,2.64-4.8,3.99-7.48,4.07c-2.62,0.08-4.65-0.55-6.09-1.88
				c-0.84-0.79-1.46-1.79-1.86-3c-0.41-1.21-0.6-2.63-0.61-4.22c-0.01-1.64,0.19-3.15,0.64-4.51c0.45-1.36,1.17-2.49,2.15-3.38
				c0.67-0.61,1.44-1.1,2.33-1.46c0.88-0.36,1.9-0.58,3.04-0.66c1.29-0.09,2.42,0.03,3.38,0.36s1.79,0.84,2.45,1.53
				c0.88,0.92,1.5,2.11,1.86,3.54c0.36,1.43,0.47,3.02,0.32,4.78C527.8,319.12,525.37,319.29,520.52,319.58z M528.75,315.96
				c0.05-0.74-0.06-1.42-0.32-2.04c-0.26-0.61-0.63-1.12-1.11-1.51c-0.71-0.59-1.6-0.85-2.67-0.78c-0.62,0.04-1.15,0.17-1.6,0.38
				c-0.45,0.21-0.84,0.49-1.18,0.85c-0.4,0.43-0.71,0.96-0.91,1.6c-0.2,0.63-0.35,1.32-0.45,2.07
				C523.81,316.33,525.46,316.22,528.75,315.96z"/>
			<path class="st23" d="M552.09,324.45c-1.58,0.22-2.36,0.33-3.94,0.54c0-0.3,0-0.45,0-0.75c-0.62,0.42-1.36,0.77-2.22,1.07
				c-0.86,0.3-1.73,0.49-2.58,0.6c-0.95,0.12-1.86,0.14-2.7,0c-0.85-0.13-1.59-0.41-2.24-0.82c-0.64-0.41-1.15-0.96-1.52-1.64
				s-0.55-1.49-0.55-2.42c0-0.65,0.1-1.32,0.3-2.02c0.2-0.7,0.56-1.36,1.06-1.97c0.5-0.61,1.19-1.14,2.06-1.6
				c0.87-0.45,1.97-0.75,3.31-0.91c2.03-0.24,3.05-0.36,5.08-0.63c0-0.39,0-0.58,0-0.97c0-0.5-0.07-0.96-0.2-1.37
				c-0.13-0.41-0.35-0.76-0.66-1.04c-0.31-0.28-0.72-0.48-1.22-0.6c-0.5-0.12-1.13-0.12-1.86-0.04c-0.99,0.11-1.9,0.45-2.68,1.06
				c-0.79,0.61-1.46,1.3-2.01,2.05c-1.06-0.82-1.59-1.23-2.65-2.06c0.45-0.69,0.93-1.28,1.43-1.78c0.5-0.49,1.04-0.91,1.63-1.25
				c0.58-0.34,1.23-0.61,1.93-0.81c0.7-0.2,1.5-0.35,2.38-0.46c1.65-0.2,2.98-0.15,4.01,0.14c1.03,0.3,1.83,0.74,2.4,1.33
				s0.95,1.26,1.15,2.01c0.19,0.75,0.29,1.48,0.29,2.2C552.09,317.18,552.09,319.6,552.09,324.45z M548.15,317.03
				c-1.88,0.25-2.81,0.36-4.69,0.58c-0.67,0.08-1.21,0.21-1.63,0.4c-0.42,0.19-0.75,0.42-0.98,0.68c-0.24,0.27-0.4,0.56-0.48,0.9
				c-0.08,0.33-0.13,0.67-0.13,1c0,0.33,0.05,0.65,0.16,0.93c0.11,0.29,0.29,0.53,0.54,0.73c0.25,0.2,0.59,0.34,1.02,0.42
				c0.43,0.08,0.96,0.09,1.58,0.02c1.09-0.14,1.96-0.36,2.58-0.62c0.62-0.26,1.06-0.54,1.32-0.83c0.3-0.33,0.51-0.76,0.59-1.3
				c0.08-0.54,0.13-1.04,0.13-1.52C548.15,317.87,548.15,317.59,548.15,317.03z"/>
		</g>
	</g>
	<rect id="_x3C_Slice_x3E_" x="168" y="185" class="st45" width="454" height="204"/>
</g>
</svg>
