<svg xmlns="http://www.w3.org/2000/svg" width="243" height="108" viewBox="0 0 243 108" fill="none"><g clip-path="url(#clip0_5189_32653)"><path d="M107.333 85.6075H99.5391V25.1564H112.129C114.483 25.1564 116.409 25.545 117.908 26.3221C119.406 27.0771 120.572 28.2039 121.405 29.7027C122.226 31.1904 122.798 32.9945 123.12 35.115C123.453 37.2466 123.62 39.6669 123.62 42.3758V43.425C123.62 47.4106 123.292 50.7801 122.637 53.5335C122.015 56.2535 120.889 58.324 119.256 59.7451C117.624 61.144 115.293 61.8434 112.262 61.8434H107.333V85.6075ZM107.333 31.418V55.2154H111.096C112.44 55.2154 113.445 54.8491 114.111 54.1163C114.81 53.3614 115.271 52.1235 115.493 50.4027C115.737 48.6596 115.859 46.3226 115.859 43.3917V42.2259C115.859 38.5844 115.571 35.87 114.993 34.0825C114.427 32.3062 113.173 31.418 111.23 31.418H107.333ZM136.742 85.6075H129.032V34.0825H136.742V85.6075ZM136.742 29.353H128.999V22.2754H136.742V29.353ZM161.089 85.6242H142.621V79.679L153.712 40.8937H143.47V34.0992H161.639V39.6613L150.548 78.913H161.089V85.6242ZM183.155 85.6242H164.687V79.6957L175.778 40.9103H165.536V34.1158H183.704V39.678L172.613 78.9296H183.155V85.6242ZM196.861 86.1071C193.641 86.1071 191.359 84.8693 190.016 82.3935C188.673 79.9066 187.99 76.5316 187.968 72.2683V67.9718C187.968 65.496 188.345 63.4699 189.1 61.8934C189.866 60.2947 190.954 58.9791 192.364 57.9466C193.774 56.9141 195.439 55.9981 197.36 55.1988C199.292 54.3772 201.424 53.5057 203.755 52.5842V48.4043C203.755 46.3837 203.683 44.7683 203.538 43.5582C203.405 42.3259 203.083 41.421 202.573 40.8437C202.062 40.2664 201.246 39.9778 200.125 39.9778C199.025 39.9778 198.198 40.2775 197.643 40.877C197.099 41.4543 196.738 42.3592 196.561 43.5915C196.383 44.8016 196.294 46.3726 196.294 48.3044V50.3194H188.601V48.804C188.601 46.5391 188.756 44.4686 189.067 42.5923C189.411 40.716 189.994 39.1007 190.815 37.7462C191.67 36.4029 192.858 35.3648 194.379 34.6321C195.922 33.8771 197.904 33.4997 200.324 33.4997C202.567 33.4997 204.416 33.8549 205.87 34.5655C207.324 35.2427 208.462 36.2696 209.284 37.6463C210.139 39.0008 210.733 40.6827 211.066 42.6922C211.421 44.7128 211.599 47.0498 211.599 49.7032V85.6242H203.822V80.8947C203.588 81.694 203.172 82.5045 202.573 83.3261C201.973 84.1254 201.19 84.7915 200.224 85.3244C199.259 85.8462 198.137 86.1071 196.861 86.1071ZM199.275 79.8622C200.441 79.8622 201.418 79.4625 202.206 78.6632C203.006 77.8527 203.522 77.0367 203.755 76.2151V57.397C202.178 58.1298 200.88 58.7959 199.858 59.3954C198.826 59.9616 198.004 60.5778 197.393 61.2439C196.816 61.91 196.405 62.7094 196.161 63.642C195.917 64.5634 195.795 65.7125 195.795 67.0892V72.3016C195.795 74.955 196.039 76.8813 196.527 78.0803C197.016 79.2682 197.932 79.8622 199.275 79.8622ZM229.984 86.2404C227.586 86.2404 225.615 85.8407 224.072 85.0413C222.551 84.242 221.352 83.0874 220.475 81.5775C219.62 80.0676 219.015 78.2468 218.66 76.1152C218.327 73.9614 218.16 71.5467 218.16 68.8711V50.2195C218.16 46.9888 218.504 44.1133 219.193 41.5931C219.892 39.0729 221.102 37.0967 222.823 35.6646C224.544 34.2213 226.931 33.4997 229.984 33.4997C232.282 33.4997 234.192 33.9104 235.713 34.732C237.234 35.5536 238.433 36.7193 239.31 38.2292C240.187 39.7169 240.803 41.4821 241.158 43.5249C241.513 45.5566 241.691 47.7881 241.691 50.2195V68.8711C241.691 71.5023 241.536 73.8837 241.225 76.0153C240.914 78.1469 240.331 79.9788 239.476 81.5109C238.632 83.043 237.444 84.2198 235.912 85.0413C234.391 85.8407 232.415 86.2404 229.984 86.2404ZM229.984 79.7623C231.116 79.7623 231.966 79.3959 232.532 78.6632C233.087 77.9082 233.453 76.8646 233.631 75.5324C233.831 74.2001 233.931 72.668 233.931 70.9361V48.704C233.931 46.9388 233.831 45.4067 233.631 44.1077C233.431 42.7977 233.042 41.7874 232.465 41.0769C231.899 40.3441 231.072 39.9778 229.984 39.9778C228.84 39.9778 227.974 40.3441 227.386 41.0769C226.809 41.7874 226.42 42.7977 226.22 44.1077C226.043 45.4067 225.954 46.9388 225.954 48.704V70.9361C225.954 72.668 226.043 74.2001 226.22 75.5324C226.42 76.8646 226.809 77.9082 227.386 78.6632C227.974 79.3959 228.84 79.7623 229.984 79.7623Z" fill="white"></path><path fill-rule="evenodd" clip-rule="evenodd" d="M234.652 102.243C215.647 88.6474 122.381 103.12 98.4062 107.944C121.65 105.605 215.794 93.3254 231.874 105.166C232.313 105.605 232.751 105.751 233.336 105.751C233.921 105.751 234.359 105.459 234.798 105.166C235.09 104.728 235.236 104.143 235.236 103.705C235.236 103.12 235.09 102.681 234.652 102.243Z" fill="#F8D046"></path><path fill-rule="evenodd" clip-rule="evenodd" d="M62.673 32.4334L57.9301 35.4606L58.9283 31.5447C59.8074 31.3625 61.7384 31.3003 62.673 32.4334ZM78.3738 22.4123L65.9195 30.3613C64.7165 29.2219 62.1531 27.4159 60.0729 28.0222L64.5203 11.9825C68.038 13.7656 75.6892 18.3277 78.3738 22.4123ZM84.722 18.3606L81.5054 20.4136C78.7531 17.4142 71.8701 11.031 65.4507 8.55793L66.3 4.95726C70.0918 6.39034 79.0802 11.076 84.722 18.3606ZM87.7713 16.5027L87.7655 16.5063L88.7077 17.8094C88.8919 18.0643 89.0032 18.3647 89.0295 18.6781C89.0828 19.3155 88.78 19.9303 88.2421 20.2764L56.34 40.8052L56.0928 41.0275C54.7286 42.2538 52.6076 40.9411 53.0967 39.173L62.9508 3.54678L63.5191 1.77268C63.8668 0.687051 65.1096 0.17767 66.1192 0.706965L66.5074 0.910451C78.1479 6.37979 85.5336 13.5842 87.7713 16.5027ZM53.4147 13.7383C54.6958 14.0474 55.409 15.3858 55.0285 16.6475L54.8598 17.2067L46.2229 51.4013L75.4157 33.5786L76.7487 32.6994C77.8438 31.9771 79.323 32.2713 79.9902 33.4009C84.6472 41.2843 86.6395 50.4853 85.6308 59.6285C84.5353 69.5592 79.9699 78.7844 72.7391 85.6786C65.5084 92.5728 56.0763 96.6935 46.1051 97.3145C36.1339 97.9355 26.2633 95.017 18.2329 89.0733C10.2025 83.1296 4.52752 74.5421 2.20803 64.824C-0.111459 55.106 1.0734 44.8812 5.55381 35.9513C10.0342 27.0215 17.5226 19.9597 26.6995 16.0103C35.1439 12.3762 44.5193 11.5922 53.4147 13.7383ZM51.0996 17.6608L51.3269 16.7591C42.6163 15.0361 33.407 16.1797 25.5313 20.2805C17.6557 24.3812 11.4118 31.0426 7.82844 39.1669C4.24505 47.2913 3.53589 56.3941 5.81781 64.9755C8.09973 73.557 13.2366 81.1052 20.3821 86.3765C27.5276 91.6479 36.2554 94.3279 45.1277 93.9751C54 93.6223 62.4874 90.2577 69.1916 84.4356C75.8958 78.6135 80.4169 70.6812 82.01 61.9457C83.6031 53.2102 82.1258 44.1839 77.9084 36.3697L77.0177 36.8974C77.0174 36.8967 77.017 36.896 77.0166 36.8954L76.7596 37.0503L74.5181 38.3783C74.5212 38.3842 74.5244 38.3901 74.5276 38.396L74.2997 38.5334C77.5993 44.7208 78.974 51.7852 78.1992 58.8084C77.2967 66.9887 73.536 74.5879 67.5797 80.267C61.6235 85.946 53.8539 89.3404 45.6402 89.8519C37.4265 90.3635 29.2957 87.9594 22.6807 83.0633C16.0658 78.1672 11.391 71.0933 9.48039 63.0882C7.56973 55.0831 8.54574 46.6604 12.2364 39.3045C15.9271 31.9486 22.0957 26.1315 29.655 22.8783C36.1929 20.0647 43.4084 19.325 50.3362 20.7142L51.1122 17.6634C51.108 17.6626 51.1038 17.6617 51.0996 17.6608ZM71.2385 40.379L65.3771 43.9129C66.0869 45.4908 66.2063 47.2727 65.7111 48.933C65.2055 50.6283 64.0945 52.0786 62.5894 53.0081C61.0843 53.9377 59.29 54.2816 57.5479 53.9744C55.8057 53.6673 54.2372 52.7306 53.1406 51.3424L53.4193 51.1223L45.0037 56.1961L44.2631 56.5231C42.7721 57.1814 41.2302 55.7065 41.8217 54.1876L49.4551 24.1782C43.2898 22.9794 36.8795 23.6548 31.0658 26.1568C24.2786 29.0777 18.7401 34.3006 15.4264 40.9052C12.1127 47.5098 11.2364 55.0721 12.9519 62.2596C14.6674 69.4471 18.8646 75.7984 24.8039 80.1945C30.7433 84.5905 38.0435 86.749 45.4183 86.2897C52.7931 85.8304 59.7691 82.7827 65.1169 77.6837C70.4648 72.5848 73.8414 65.7617 74.6517 58.4169C75.3404 52.1739 74.1375 45.8945 71.2385 40.379ZM56.4316 49.3061C56.9174 49.7787 57.5362 50.0977 58.2103 50.2165C59.0307 50.3611 59.8756 50.1992 60.5844 49.7614C61.2932 49.3237 61.8164 48.6407 62.0545 47.8424C62.2432 47.2099 62.2424 46.54 62.0584 45.9137L56.4316 49.3061ZM36.7801 39.413C39.6832 38.8728 41.5988 36.0814 41.0586 33.1782C40.5185 30.275 37.7271 28.3593 34.824 28.8995C31.9209 29.4396 30.0054 32.231 30.5456 35.1342C31.0857 38.0374 33.877 39.9531 36.7801 39.413ZM36.1284 35.8971C37.0901 35.7182 37.7247 34.7935 37.5457 33.8317C37.3668 32.87 36.4421 32.2354 35.4804 32.4143C34.5187 32.5932 33.8841 33.5179 34.063 34.4797C34.242 35.4415 35.1667 36.0761 36.1284 35.8971ZM32.8214 47.7725C33.5655 51.772 30.9267 55.6174 26.9273 56.3615C22.928 57.1056 19.0827 54.4666 18.3386 50.4671C17.5944 46.4676 20.2333 42.6222 24.2326 41.8781C28.2319 41.134 32.0773 43.773 32.8214 47.7725ZM29.2217 48.4422C29.596 50.4537 28.2688 52.3878 26.2574 52.762C24.2459 53.1362 22.312 51.809 21.9377 49.7975C21.5635 47.7859 22.8906 45.8519 24.9021 45.4777C26.9135 45.1034 28.8475 46.4307 29.2217 48.4422ZM62.796 68.3486C63.5401 72.3481 60.9013 76.1935 56.9019 76.9376C52.9026 77.6817 49.0573 75.0426 48.3132 71.0431C47.569 67.0436 50.2079 63.1982 54.2072 62.4541C58.2065 61.71 62.0519 64.3491 62.796 68.3486ZM59.1963 69.0183C59.5706 71.0298 58.2434 72.9638 56.2319 73.3381C54.2205 73.7123 52.2865 72.385 51.9123 70.3735C51.538 68.362 52.8652 66.428 54.8767 66.0537C56.8881 65.6795 58.8221 67.0068 59.1963 69.0183ZM40.6259 70.6064C41.1753 73.5595 39.2269 76.3988 36.2739 76.9482C33.321 77.4976 30.4818 75.549 29.9324 72.596C29.3829 69.6429 31.3314 66.8036 34.2843 66.2542C37.2372 65.7048 40.0764 67.6534 40.6259 70.6064ZM37.0528 71.2711C37.2348 72.2494 36.5894 73.19 35.6111 73.372C34.6329 73.554 33.6924 72.9085 33.5103 71.9302C33.3283 70.9519 33.9738 70.0114 34.952 69.8293C35.9302 69.6473 36.8708 70.2928 37.0528 71.2711ZM24.369 62.4574C24.5579 63.4727 23.888 64.4489 22.8727 64.6378C21.8574 64.8267 20.8812 64.1568 20.6923 63.1414C20.5034 62.1261 21.1733 61.1499 22.1886 60.961C23.2039 60.7721 24.1801 61.442 24.369 62.4574ZM37.2738 61.9132C38.2891 61.7243 38.959 60.7481 38.7701 59.7328C38.5812 58.7174 37.605 58.0475 36.5897 58.2364C35.5744 58.4253 34.9045 59.4015 35.0934 60.4168C35.2823 61.4321 36.2585 62.1021 37.2738 61.9132ZM68.3541 58.0146C68.543 59.0299 67.873 60.0062 66.8578 60.1951C65.8425 60.384 64.8663 59.714 64.6774 58.6987C64.4885 57.6833 65.1584 56.7071 66.1737 56.5182C67.189 56.3293 68.1652 56.9993 68.3541 58.0146ZM44.9205 82.9709C45.9358 82.782 46.6057 81.8058 46.4168 80.7904C46.2279 79.7751 45.2517 79.1052 44.2364 79.2941C43.2211 79.4829 42.5512 80.4592 42.7401 81.4745C42.929 82.4898 43.9052 83.1598 44.9205 82.9709Z" fill="white"></path></g><defs><clipPath id="clip0_5189_32653"><rect width="243" height="108" fill="white"></rect></clipPath></defs></svg>