<svg width="80" height="80" viewBox="0 0 80 80" fill="none" xmlns="http://www.w3.org/2000/svg">
<g clip-path="url(#clip0_140_1221)">
<path d="M65 43.3333H60V28.2833C61.4 29.3333 63.1167 30 65 30C65.9167 30 66.6667 29.25 66.6667 28.3333V15C66.6667 14.0833 65.9167 13.3333 65 13.3333C63.1167 13.3333 61.4 13.9833 60 15.05V15C60 14.0833 59.25 13.3333 58.3333 13.3333H48.5167C45.9833 13.3333 43.8 15.1167 43.4 17.5C43.15 18.9667 43.5667 20.45 44.5167 21.5667C45.4667 22.6833 46.8667 23.3333 48.3333 23.3333H50V51.6667C50 52.5833 49.25 53.3333 48.3333 53.3333H31.6667C30.75 53.3333 30 52.5833 30 51.6667V39.7C31.9333 39.0167 33.3333 37.1833 33.3333 35C33.3333 32.25 31.0833 30 28.3333 30H23.0333C23.2167 29.4833 23.3333 28.9167 23.3333 28.3333V15C23.3333 12.25 21.0833 10 18.3333 10H5C2.25 10 0 12.25 0 15V28.3333C0 29.6167 0.5 30.7833 1.3 31.6667C0.5 32.55 0 33.7167 0 35C0 37.75 2.25 40 5 40H5.6C2.2 42.75 0 46.95 0 51.6667V61.6667C0 62.5833 0.75 63.3333 1.66667 63.3333H7.25C8.63333 67.2167 12.3167 70 16.6667 70C21.0167 70 24.7 67.2167 26.0833 63.3333H53.9167C55.3 67.2167 58.9833 70 63.3333 70C67.6833 70 71.3667 67.2167 72.75 63.3333H78.3333C79.25 63.3333 80 62.5833 80 61.6667V58.3333C80 50.0667 73.2667 43.3333 65 43.3333ZM63.3333 16.95V26.3833C61.4 25.7 60 23.8333 60 21.6667C60 19.5 61.4 17.6333 63.3333 16.95ZM3.33333 15C3.33333 14.0833 4.08333 13.3333 5 13.3333H18.3333C19.25 13.3333 20 14.0833 20 15V28.3333C20 29.25 19.25 30 18.3333 30H5C4.08333 30 3.33333 29.25 3.33333 28.3333V15ZM5 36.6667C4.08333 36.6667 3.33333 35.9167 3.33333 35C3.33333 34.0833 4.08333 33.3333 5 33.3333H28.3333C29.25 33.3333 30 34.0833 30 35C30 35.9167 29.25 36.6667 28.3333 36.6667H5ZM3.33333 60V56.6667H7.25C6.88333 57.7167 6.66667 58.8333 6.66667 60H3.33333ZM16.6667 66.6667C12.9833 66.6667 10 63.6833 10 60C10 56.3167 12.9833 53.3333 16.6667 53.3333C20.35 53.3333 23.3333 56.3167 23.3333 60C23.3333 63.6833 20.35 66.6667 16.6667 66.6667ZM63.3333 66.6667C59.65 66.6667 56.6667 63.6833 56.6667 60C56.6667 56.3167 59.65 53.3333 63.3333 53.3333C67.0167 53.3333 70 56.3167 70 60C70 63.6833 67.0167 66.6667 63.3333 66.6667ZM76.6667 60H73.3333C73.3333 54.4833 68.85 50 63.3333 50C57.8167 50 53.3333 54.4833 53.3333 60H26.6667C26.6667 54.4833 22.1833 50 16.6667 50C13.6167 50 10.9 51.3667 9.06667 53.5167C8.85 53.4 8.6 53.3333 8.33333 53.3333H3.33333V51.6667C3.33333 51.1 3.38333 50.55 3.46667 50H8.33333C9.25 50 10 49.25 10 48.3333C10 47.4167 9.25 46.6667 8.33333 46.6667H4.48333C6.36667 42.7333 10.3667 40 15 40H26.6667V51.6667C26.6667 54.4167 28.9167 56.6667 31.6667 56.6667H48.3333C51.0833 56.6667 53.3333 54.4167 53.3333 51.6667V21.6667C53.3333 20.75 52.5833 20 51.6667 20H48.3333C47.85 20 47.3833 19.7833 47.0667 19.4C46.75 19.0167 46.6167 18.5333 46.7 18.0333C46.8333 17.2667 47.6333 16.6667 48.5167 16.6667H56.6667V45C56.6667 45.9167 57.4167 46.6667 58.3333 46.6667H65C71.4333 46.6667 76.6667 51.9 76.6667 58.3333V60Z" fill="#C8102E"/>
</g>
<defs>
<clipPath id="clip0_140_1221">
<rect width="80" height="60" fill="white" transform="translate(0 10)"/>
</clipPath>
</defs>
</svg>
