<svg width="140" height="140" viewBox="0 0 140 140" fill="none" xmlns="http://www.w3.org/2000/svg">
<rect width="140" height="140" rx="70" fill="white"/>
<g clip-path="url(#clip0_592_556)">
<rect x="42.5435" y="41.8579" width="35.8976" height="49.408" rx="10" fill="white"/>
<circle cx="81.5951" cy="81.6007" r="16.0341" fill="white"/>
<path d="M52.5569 92.2061C46.5956 92.2061 41.7622 87.3727 41.7622 81.4115V52.6526C41.7622 46.6913 46.5956 41.8579 52.5569 41.8579H67.6462C73.6075 41.8579 78.4409 46.6913 78.4409 52.6526V63.5127C79.0199 63.412 79.609 63.3365 80.2031 63.2861V52.6526C80.2031 45.7297 74.5691 40.0957 67.6462 40.0957H52.5569C45.634 40.0957 40 45.7297 40 52.6526V81.4064C40 88.3293 45.634 93.9633 52.5569 93.9633H67.6462C67.8174 93.9633 67.9836 93.9582 68.1547 93.9482C67.6462 93.3943 67.178 92.8103 66.74 92.2011H52.5569V92.2061Z" fill="#666666"/>
<path d="M52.5569 90.444C47.5774 90.444 43.5244 86.3909 43.5244 81.4115V52.6526C43.5244 47.6731 47.5774 43.6201 52.5569 43.6201H67.6462C72.6257 43.6201 76.6787 47.6731 76.6787 52.6526V63.9155C77.2577 63.7544 77.8418 63.6184 78.4409 63.5127V52.6526C78.4409 46.6913 73.6075 41.8579 67.6462 41.8579H52.5569C46.5956 41.8579 41.7622 46.6913 41.7622 52.6526V81.4065C41.7622 87.3677 46.5956 92.2011 52.5569 92.2011H66.74C66.3372 91.6372 65.9596 91.0481 65.6222 90.4389H52.5569V90.444Z" fill="#666666"/>
<path d="M66.6899 49.4807L66.9467 48.7103C67.2538 47.789 66.7503 46.7921 65.8289 46.4849C64.9076 46.1828 63.9107 46.6763 63.6036 47.6027L63.3468 48.378C63.1706 48.9168 62.6671 49.2793 62.0981 49.2793H58.1106C57.5416 49.2793 57.0381 48.9168 56.8619 48.378L56.6051 47.6077C56.298 46.6813 55.3011 46.1828 54.3798 46.49C53.4584 46.7971 52.9549 47.794 53.262 48.7154L53.5188 49.4857C54.1733 51.4694 56.0211 52.8036 58.1106 52.8036H62.0981C64.1876 52.8036 66.0354 51.4694 66.6899 49.4857V49.4807Z" fill="#666666"/>
<path d="M81.663 63.2256C81.1746 63.2256 80.6862 63.2508 80.2079 63.291C79.6138 63.3364 79.0248 63.4119 78.4457 63.5176C77.8466 63.6233 77.2626 63.7593 76.6836 63.9204C68.9853 66.0954 63.3262 73.1794 63.3262 81.5675C63.3262 84.7847 64.162 87.8157 65.6271 90.4438C65.9644 91.0531 66.342 91.6421 66.7448 92.206C67.1828 92.8152 67.6511 93.4043 68.1596 93.9531C71.5128 97.6084 76.3261 99.9043 81.668 99.9043C91.778 99.9043 100.005 91.6774 100.005 81.5675C100.005 71.4575 91.778 63.2256 81.668 63.2256H81.663ZM81.663 96.3799C78.1286 96.3799 74.8811 95.1313 72.3284 93.0569C71.8149 92.639 71.3315 92.1909 70.8834 91.7076C70.4404 91.2343 70.0275 90.7359 69.6449 90.2072C67.8877 87.7704 66.8455 84.7847 66.8455 81.5574C66.8455 75.1329 70.9539 69.6551 76.6785 67.6059C77.2525 67.3995 77.8365 67.2333 78.4407 67.0974C79.0147 66.9715 79.6038 66.8708 80.2029 66.8154C80.6812 66.7701 81.1696 66.7449 81.658 66.7449C89.8245 66.7449 96.4704 73.3909 96.4704 81.5624C96.4704 89.7339 89.8245 96.3749 81.658 96.3749L81.663 96.3799Z" fill="#666666"/>
<path d="M90.217 80.8928H88.8023L89.7639 77.8216C90.0559 76.8951 89.5373 75.9033 88.6059 75.6163C87.6745 75.3243 86.6876 75.8429 86.4007 76.7743L84.9154 81.5222L83.3395 76.7491C83.1028 76.0292 82.4282 75.5408 81.6679 75.5408C81.0738 75.5408 80.5351 75.8429 80.2129 76.3161C80.1222 76.4471 80.0467 76.5931 79.9964 76.7491L78.4507 81.4265L78.4205 81.5222L76.9352 76.7743C76.8798 76.5931 76.7892 76.437 76.6885 76.291C76.2605 75.6818 75.4801 75.3847 74.7249 75.6163C73.7935 75.9083 73.2799 76.8952 73.5669 77.8266L74.5285 80.8978H73.1137C72.142 80.8978 71.3516 81.6883 71.3516 82.66C71.3516 83.6317 72.142 84.4222 73.1137 84.4222H75.6312L75.8628 85.1623L76.5878 87.4783L76.6885 87.8056C76.8496 88.3242 77.2373 88.722 77.7206 88.9133C77.917 88.9938 78.1335 89.0391 78.355 89.0442H78.3701C79.1304 89.0442 79.805 88.5558 80.0417 87.8358L81.6679 82.9218L83.2942 87.8358C83.5308 88.5558 84.2055 89.0442 84.9657 89.0442H84.9808C85.7461 89.0391 86.4208 88.5407 86.6474 87.8056L87.7047 84.4272H90.2221C91.1938 84.4272 91.9843 83.6368 91.9843 82.6651C91.9843 81.6933 91.1938 80.9029 90.2221 80.9029L90.217 80.8928Z" fill="#CF152D"/>
</g>
<defs>
<clipPath id="clip0_592_556">
<rect width="60" height="59.8087" fill="white" transform="translate(40 40.0957)"/>
</clipPath>
</defs>
</svg>
