<svg width="140" height="140" viewBox="0 0 140 140" fill="none" xmlns="http://www.w3.org/2000/svg">
<rect width="140" height="140" rx="70" fill="white"/>
<g clip-path="url(#clip0_592_575)">
<path d="M47.7202 88.56H92.3002C92.3002 92.66 88.9802 95.98 84.8802 95.98H55.1602C51.0602 95.98 47.7402 92.66 47.7402 88.56H47.7202Z" fill="white" stroke="#CF152D" stroke-width="3.6" stroke-linejoin="round"/>
<path d="M44 88.5798V88.1998C44 81.5798 49.38 76.1998 56 76.1998H84C90.62 76.1998 96 81.5798 96 88.1998V88.5798H44Z" fill="white" stroke="#666666" stroke-width="3.6" stroke-linejoin="round"/>
<path d="M70.0001 44C65.9801 44 62.8001 47.4 63.0401 51.42L65.0401 76.2H74.9401L76.9401 51.42C77.2001 47.4 74.0201 44 69.9801 44H70.0001Z" fill="white" stroke="#666666" stroke-width="3.6" stroke-linejoin="round"/>
</g>
<defs>
<clipPath id="clip0_592_575">
<rect width="55.6" height="55.6" fill="white" transform="translate(42.2002 42.2)"/>
</clipPath>
</defs>
</svg>
